<?xml version="1.0" standalone="no"?>
<!DOCTYPE svg PUBLIC "-//W3C//DTD SVG 20010904//EN"
 "http://www.w3.org/TR/2001/REC-SVG-20010904/DTD/svg10.dtd">
<svg version="1.0" xmlns="http://www.w3.org/2000/svg"
 width="1229.000000pt" height="1229.000000pt" viewBox="0 0 1229.000000 1229.000000"
 preserveAspectRatio="xMidYMid meet">
<metadata>
Created by potrace 1.14, written by Peter Selinger 2001-2017
</metadata>
<g transform="translate(0.000000,1229.000000) scale(0.100000,-0.100000)"
fill="#000000" stroke="none">
<path d="M0 9651 l0 -2639 27 -6 c71 -14 94 -17 173 -21 84 -4 138 -10 172
-21 10 -3 18 0 18 6 0 6 5 8 13 3 14 -9 24 -11 136 -22 47 -5 118 -17 156 -26
39 -9 78 -16 88 -16 9 0 17 -7 17 -15 0 -11 -7 -13 -27 -7 -29 7 -40 8 -85 5
-32 -2 -39 -22 -8 -22 14 0 20 -7 20 -21 0 -11 -4 -17 -10 -14 -5 3 -10 -1
-10 -10 0 -10 -7 -15 -18 -13 -11 2 -16 -2 -14 -12 3 -12 1 -12 -9 -3 -9 9
-15 8 -27 -4 -16 -16 -74 -11 -80 7 -2 5 -21 14 -42 20 -22 6 -46 17 -54 25
-17 17 -36 20 -36 4 0 -5 -5 -7 -10 -4 -6 4 -17 1 -25 -5 -9 -7 -15 -8 -15 -2
0 5 7 15 15 22 22 18 3 35 -23 21 -27 -14 -32 -14 -32 4 0 8 -11 17 -25 21
-27 7 -33 19 -12 27 6 3 2 6 -10 6 -16 1 -23 -5 -23 -16 0 -15 -2 -16 -9 -3
-6 8 -8 17 -5 22 3 4 -12 7 -33 6 -21 -1 -45 2 -53 5 -8 3 -43 8 -77 10 l-63
5 0 -1974 0 -1975 28 33 c15 18 41 52 58 74 106 149 398 434 539 527 91 60
238 137 262 137 18 0 96 37 162 77 30 18 62 33 70 33 9 0 61 14 116 31 314 98
375 123 375 153 0 16 3 18 9 7 7 -11 13 -10 33 3 20 13 34 14 75 6 28 -5 77
-8 110 -6 209 13 293 20 302 25 11 7 19 37 21 86 1 17 4 24 7 15 3 -8 11 -18
17 -22 8 -6 6 -11 -4 -18 -8 -5 -13 -10 -10 -11 3 0 13 -2 22 -4 10 -2 15 2
11 10 -2 8 0 22 6 32 10 17 10 17 11 -2 0 -16 2 -17 10 -5 12 20 20 9 22 -32
1 -27 5 -34 22 -36 24 -2 76 17 76 28 0 4 28 8 63 10 130 6 153 8 194 18 30 6
43 6 46 -2 3 -7 14 -5 35 7 16 9 37 17 45 17 8 0 18 7 21 16 4 10 13 13 26 9
15 -5 18 -3 14 9 -7 19 12 22 20 4 3 -10 8 -8 16 4 6 9 16 15 24 12 7 -3 19 2
26 11 7 9 28 15 51 15 21 0 45 7 54 16 12 13 38 17 103 19 125 3 129 3 148 22
13 13 19 14 22 5 2 -6 13 -12 25 -12 17 0 19 2 7 10 -9 5 8 7 48 4 34 -3 62
-1 62 3 0 4 27 6 60 5 67 -4 103 4 81 17 -8 6 -3 10 18 14 17 4 41 15 52 26
20 19 35 20 211 25 25 0 44 -2 41 -6 -8 -14 14 -8 27 7 7 8 23 15 36 15 15 0
24 6 24 16 0 18 34 11 61 -12 20 -18 49 -18 49 1 0 10 9 13 29 10 26 -3 37 5
91 70 56 67 66 75 107 81 24 3 61 3 81 -1 51 -9 54 -9 80 -1 28 9 31 -18 3
-36 -10 -6 -17 -17 -14 -23 2 -7 -10 -24 -26 -38 -17 -14 -31 -31 -31 -37 0
-7 -7 -10 -15 -6 -9 3 -15 0 -15 -9 0 -13 -20 -19 -66 -18 -6 0 -11 -5 -12
-11 -1 -6 -5 -27 -10 -46 -10 -40 0 -94 28 -156 11 -23 20 -47 20 -53 0 -30
137 -201 249 -309 122 -119 288 -245 313 -239 10 3 16 2 13 -3 -3 -4 2 -13 10
-20 13 -11 14 -10 9 4 -6 15 -2 17 22 14 17 -2 34 3 40 11 6 8 26 15 45 16
101 5 176 19 194 35 11 10 39 26 63 35 23 10 42 22 42 27 0 5 6 8 12 6 7 -3
33 7 58 22 43 25 131 49 214 56 22 2 42 7 45 12 14 19 65 43 82 39 10 -3 18
-2 17 2 -2 13 18 52 26 49 5 -2 11 8 13 22 7 49 50 98 95 111 68 18 90 28 83
40 -8 12 40 60 51 50 3 -3 4 3 1 14 -4 15 5 29 38 55 24 19 44 40 44 46 1 6
25 18 54 27 39 12 66 30 99 65 62 66 120 112 140 112 10 0 23 9 30 20 7 11 20
20 29 20 26 0 189 113 233 161 22 24 42 37 44 31 5 -17 22 -15 22 2 0 7 15 21
33 30 17 8 28 16 22 16 -14 0 72 80 87 80 14 0 35 74 30 103 -2 9 -12 17 -22
17 -14 0 -17 -5 -12 -22 3 -14 2 -19 -6 -14 -7 4 -12 2 -12 -3 0 -6 -9 -11
-19 -11 -11 0 -27 -7 -35 -16 -11 -11 -16 -12 -16 -3 0 7 -11 2 -25 -11 -14
-13 -25 -34 -25 -47 0 -16 -6 -23 -19 -23 -10 0 -30 -11 -45 -25 -15 -14 -36
-25 -47 -25 -24 0 -58 -18 -84 -46 -11 -12 -37 -25 -57 -28 -20 -4 -50 -13
-65 -21 -15 -8 -34 -15 -41 -15 -7 0 -20 -4 -30 -9 -63 -31 -199 -60 -186 -39
2 3 -26 4 -64 1 -37 -3 -70 -10 -74 -16 -5 -8 -51 -13 -135 -14 -70 -1 -146
-6 -168 -12 -30 -8 -43 -7 -55 4 -8 7 -35 19 -59 26 -24 7 -59 29 -80 50 -20
20 -52 44 -71 54 -19 10 -58 38 -86 61 -28 24 -56 44 -62 44 -28 0 -95 58
-122 107 -17 30 -38 57 -46 60 -8 3 -13 12 -10 19 3 8 1 14 -4 14 -6 0 -10 11
-10 25 0 14 -4 25 -9 25 -5 0 -12 10 -16 23 -3 12 -11 33 -18 46 -9 19 -9 25
5 35 11 8 14 17 7 27 -14 22 -11 39 7 39 11 0 15 6 11 20 -6 23 -7 23 173 26
424 8 738 22 771 35 15 6 33 22 40 37 8 15 18 30 24 35 6 4 1 10 -12 13 -13 4
-20 10 -17 15 3 5 -1 9 -8 10 -78 3 -113 7 -173 17 -38 6 -137 14 -220 16 -82
3 -157 6 -165 7 -26 2 -75 27 -95 49 -10 11 -24 20 -32 20 -24 0 -34 45 -17
78 21 42 34 51 95 61 30 5 43 9 30 10 -18 1 -22 5 -18 20 4 16 -2 21 -26 27
-17 3 -38 10 -47 15 -8 4 -36 13 -62 21 -42 11 -49 16 -54 45 -14 75 18 123
82 123 37 0 43 -3 38 -17 -5 -16 -4 -17 8 -2 9 11 23 15 47 11 l34 -5 -22 31
c-30 43 -45 51 -38 21 6 -24 6 -24 -59 -19 -93 8 -115 39 -74 105 24 39 66 51
107 30 34 -18 50 -19 55 -2 4 9 76 12 319 12 310 0 314 0 346 -22 17 -13 40
-23 52 -23 56 0 119 -56 92 -83 -17 -17 -13 -29 8 -22 10 3 24 -1 31 -10 14
-16 55 -21 45 -5 -3 6 -2 10 2 10 13 0 41 -35 45 -57 2 -12 12 -18 28 -17 14
1 28 -3 31 -9 4 -6 21 -1 43 13 31 19 43 21 75 13 20 -6 48 -9 62 -8 22 1 24
7 26 51 3 57 -34 142 -75 174 -13 11 -21 20 -17 20 4 0 2 6 -4 14 -23 28 -100
-17 -87 -51 4 -10 2 -14 -8 -10 -7 3 -19 0 -26 -6 -10 -9 -12 -8 -7 4 4 13 -3
18 -36 22 -23 3 -62 17 -87 30 -25 13 -63 29 -85 36 -22 7 -56 20 -75 29 -25
12 -70 18 -160 20 -69 2 -130 8 -136 13 -5 4 -32 8 -60 8 -80 -1 -94 1 -94 11
0 6 -6 10 -13 10 -8 0 -34 13 -58 29 -24 16 -47 27 -52 24 -8 -5 -124 34 -139
46 -4 3 -2 26 4 50 10 37 9 45 -5 53 -20 11 -22 39 -5 56 9 9 9 12 -2 12 -13
0 -13 2 0 10 9 5 14 22 12 42 -3 44 8 59 54 68 22 4 62 17 89 28 28 11 68 25
91 31 23 6 54 23 70 38 29 28 45 31 144 33 70 1 186 -32 219 -64 59 -54 129
-63 177 -21 28 24 28 25 6 25 -14 0 -21 4 -16 11 4 6 -12 28 -35 49 -22 21
-41 41 -41 44 0 13 -88 96 -101 96 -8 0 -22 7 -31 14 -11 8 -43 12 -86 11 -66
-1 -70 -3 -109 -40 -66 -67 -83 -77 -98 -65 -7 6 -17 10 -21 9 -5 -2 -27 3
-48 9 -22 6 -43 9 -48 6 -4 -3 -8 0 -8 5 0 6 -7 11 -15 11 -9 0 -27 7 -40 16
-14 9 -25 12 -25 8 0 -5 -10 6 -21 24 -21 31 -74 62 -132 76 -21 5 -34 1 -55
-19 -15 -14 -36 -25 -48 -25 -22 0 -147 -49 -126 -50 7 0 12 -14 12 -35 0 -28
-4 -35 -19 -35 -20 0 -31 18 -31 50 0 10 -7 20 -15 24 -8 3 -15 14 -15 25 0
11 -5 23 -11 27 -6 3 -8 16 -4 28 3 11 8 34 10 50 2 16 11 36 20 46 8 9 15 31
15 48 0 21 5 32 14 32 8 0 23 10 33 23 10 12 31 28 48 35 16 8 35 22 42 32 7
10 28 21 47 24 47 9 86 56 86 104 0 28 3 33 10 22 8 -12 10 -8 11 15 1 17 0
38 -1 49 -1 11 3 16 10 11 6 -4 16 -2 23 3 7 6 17 11 22 12 6 0 9 9 7 20 -2
13 4 19 20 22 20 3 24 11 29 56 4 29 14 64 24 78 9 14 15 35 14 47 -3 40 13
87 41 117 24 26 35 30 79 30 42 0 56 -5 85 -30 32 -29 96 -135 96 -161 0 -13
96 -159 135 -204 35 -40 152 -170 194 -214 18 -20 40 -46 48 -58 9 -13 20 -23
25 -23 5 0 18 -10 28 -22 l18 -23 -5 27 c-3 14 -13 28 -22 31 -9 2 -17 14 -18
27 -1 13 -8 27 -15 31 -7 5 -8 9 -3 10 6 0 1 4 -10 9 -19 8 -19 9 -1 9 20 1
20 1 0 16 -17 13 -13 14 46 7 36 -4 182 -7 325 -7 198 1 287 5 375 19 239 37
351 76 416 148 47 51 72 112 116 278 16 63 31 120 33 126 2 7 15 9 30 7 15 -3
33 1 43 10 11 10 45 17 97 20 96 5 154 -12 156 -47 1 -11 2 -41 3 -66 1 -25 5
-51 9 -58 5 -7 6 -36 2 -65 -4 -42 -12 -168 -17 -302 0 -11 -5 -38 -10 -60 -6
-22 -11 -60 -13 -85 -1 -25 -5 -53 -9 -62 -5 -11 -4 -18 3 -18 6 0 11 -9 11
-20 0 -11 4 -20 10 -20 11 0 12 6 34 130 20 116 31 143 53 132 40 -20 93 34
93 94 0 21 -50 38 -73 25 -15 -10 -17 -8 -13 11 3 13 8 88 11 168 8 197 11
211 40 204 56 -14 175 79 175 136 0 28 2 31 15 20 13 -11 15 -8 15 14 0 15 7
38 16 51 9 13 13 29 9 34 -3 6 -1 21 6 33 7 12 12 34 11 49 0 15 6 30 14 33 8
3 14 16 14 29 0 13 11 34 24 46 20 19 23 28 16 52 -9 29 1 46 20 34 6 -3 10 3
10 14 0 12 7 21 15 21 11 0 14 11 12 48 -2 26 -6 53 -10 59 -4 6 0 16 8 23 9
7 13 21 10 31 -3 10 1 29 10 43 12 18 14 30 6 44 -7 14 -6 25 5 40 8 12 13 26
9 31 -3 5 -1 12 5 16 5 3 10 -1 10 -9 0 -20 14 -20 30 -1 8 10 9 19 3 28 -6 6
-13 32 -16 55 -5 40 -3 43 14 39 21 -6 25 3 8 20 -16 16 6 51 36 59 13 3 52
-1 87 -9 35 -9 97 -21 138 -27 41 -7 82 -15 90 -18 8 -3 40 -11 70 -18 30 -7
78 -18 105 -24 55 -13 143 -32 250 -53 73 -15 280 -60 350 -77 22 -5 105 -25
185 -44 80 -19 210 -49 289 -66 80 -17 148 -33 152 -36 4 -2 29 -9 56 -14 84
-18 96 -20 183 -41 86 -20 152 -35 225 -49 124 -24 319 -81 332 -97 8 -10 12
-13 9 -6 -8 16 75 4 93 -14 7 -8 19 -12 26 -9 7 2 16 -10 23 -30 9 -30 8 -34
-9 -34 -27 0 -24 -14 6 -30 34 -18 34 -54 0 -48 -13 3 -22 1 -19 -3 3 -5 0
-10 -5 -10 -26 -3 -30 -4 -37 -11 -4 -4 19 -6 52 -3 41 4 54 2 44 -5 -8 -5
-22 -10 -31 -10 -9 0 -22 -7 -29 -15 -11 -13 -8 -14 16 -11 16 2 34 5 40 7 12
4 14 0 14 -21 0 -5 -14 -7 -32 -3 l-33 6 20 -23 c14 -16 16 -24 8 -27 -20 -7
-15 -23 6 -23 15 0 18 -6 15 -41 -3 -37 -2 -41 16 -36 22 6 28 -8 8 -17 -10
-3 -9 -8 2 -18 19 -16 18 -77 -1 -89 -8 -5 -22 -9 -31 -9 -10 0 -18 -5 -18
-11 0 -6 6 -9 13 -6 8 3 20 1 28 -4 11 -7 11 -9 1 -9 -8 0 -12 -6 -9 -12 2 -7
-3 -18 -10 -23 -19 -14 -6 -45 18 -45 24 0 37 -29 19 -40 -7 -4 -10 -15 -7
-24 3 -8 2 -18 -3 -21 -5 -3 -7 -12 -3 -20 3 -9 -2 -26 -11 -40 -16 -24 -15
-25 4 -25 16 0 20 -7 20 -34 0 -19 5 -36 12 -38 14 -5 16 -101 4 -133 -6 -16
-6 -17 3 -5 9 13 11 13 11 -2 0 -9 -5 -20 -11 -23 -7 -5 -5 -13 5 -24 18 -20
9 -36 -11 -20 -10 9 -13 8 -13 -5 0 -9 5 -16 10 -16 6 0 10 -4 10 -10 0 -5 -7
-7 -15 -4 -12 5 -14 2 -8 -12 4 -11 12 -23 18 -29 22 -18 26 -45 7 -45 -14 0
-15 -2 -2 -10 12 -7 12 -12 2 -22 -16 -16 -15 -28 2 -28 13 0 16 -23 5 -35 -3
-2 -2 -33 2 -67 4 -37 4 -64 -2 -66 -5 -2 -9 -18 -9 -35 0 -18 -4 -48 -10 -66
-5 -19 -8 -37 -5 -39 2 -2 8 11 12 29 11 41 31 50 28 12 -3 -50 -5 -54 -15
-48 -7 4 -8 -5 -4 -27 3 -18 7 -49 9 -68 1 -19 6 -47 10 -62 5 -19 3 -28 -4
-28 -7 0 -9 -10 -5 -26 4 -17 2 -29 -7 -35 -7 -4 -11 -11 -7 -14 3 -4 15 2 26
12 11 10 35 30 53 45 33 25 51 61 80 157 22 73 65 129 108 141 49 13 62 42 55
120 -4 50 -3 60 10 60 9 0 16 6 16 13 0 6 -5 100 -10 207 -5 107 -12 263 -15
345 -3 83 -8 191 -11 240 -3 50 -5 130 -4 178 1 49 -3 87 -7 84 -4 -3 -6 43
-5 101 3 93 -3 349 -23 1017 -17 518 -25 1059 -16 1068 20 20 22 -4 36 -473
12 -421 23 -713 30 -848 2 -40 5 -132 6 -204 0 -72 3 -136 5 -142 3 -7 38 -10
99 -8 91 4 95 3 95 -17 0 -12 -6 -21 -15 -21 -20 0 -19 -10 2 -25 9 -7 18 -21
19 -33 3 -19 -3 -21 -74 -27 -116 -9 -119 -12 -116 -82 1 -32 5 -168 9 -303 4
-135 9 -261 11 -280 3 -35 12 -456 16 -690 1 -80 5 -129 13 -136 7 -8 10 -32
7 -62 -3 -43 -1 -52 19 -66 13 -9 34 -16 47 -16 13 0 32 -4 42 -10 23 -12 81
-97 83 -121 2 -31 70 -122 114 -154 23 -16 42 -35 42 -41 1 -7 -56 -9 -176 -6
-243 6 -501 -20 -524 -51 -4 -5 -16 -6 -27 -3 -15 5 -21 1 -27 -16 -4 -13 -7
-26 -6 -30 0 -4 -8 -10 -19 -13 -23 -7 -27 -25 -5 -25 8 0 15 5 15 12 0 6 2 9
5 7 12 -12 -9 -49 -28 -49 -20 0 -20 0 -1 -14 17 -13 20 -12 31 7 7 12 12 16
13 9 0 -7 -12 -24 -26 -37 l-25 -24 33 3 c32 3 33 4 30 42 -2 29 0 35 7 24 6
-8 11 -34 11 -57 0 -33 -4 -43 -20 -48 -11 -3 -20 -13 -20 -20 0 -8 -9 -19
-20 -25 -11 -6 -20 -16 -19 -23 4 -29 -2 -47 -15 -47 -7 0 -25 -18 -40 -40
-20 -31 -23 -40 -11 -40 8 0 15 -9 15 -20 0 -11 -7 -20 -15 -20 -14 0 -13 -3
1 -25 22 -34 36 -32 30 5 -2 17 -1 30 4 30 10 0 20 -26 20 -52 0 -16 -5 -19
-24 -16 -16 3 -27 0 -30 -9 -10 -25 -7 -51 7 -57 8 -3 7 -9 -7 -20 -17 -14
-16 -15 18 -22 21 -3 35 -11 33 -18 -2 -6 -11 -10 -21 -8 -9 2 -16 -2 -16 -8
0 -5 -9 -10 -21 -10 -15 0 -19 -4 -15 -16 5 -13 1 -15 -17 -12 -22 4 -23 2
-17 -36 4 -34 9 -40 25 -38 15 2 17 1 6 -6 -9 -7 -10 -12 -2 -16 18 -11 13
-24 -11 -32 -13 -4 -25 -6 -27 -5 -2 2 -7 -3 -11 -9 -6 -10 -13 -9 -31 4 -32
22 -37 20 -35 -10 1 -25 3 -26 44 -20 37 5 42 3 42 -14 0 -10 9 -22 21 -25 19
-6 27 -19 43 -72 7 -21 4 -23 -33 -23 -23 0 -41 5 -41 11 0 5 -5 7 -10 4 -8
-5 -7 -11 1 -21 8 -10 8 -14 0 -14 -6 0 -11 -7 -11 -15 0 -8 -6 -15 -14 -15
-11 0 -13 -7 -6 -30 8 -28 7 -30 -17 -30 -21 0 -24 -2 -13 -15 10 -13 9 -15
-11 -17 -13 0 -32 -1 -41 0 -29 3 -21 -17 10 -24 15 -3 36 -9 47 -14 17 -7 15
-9 -12 -9 -23 -1 -33 -6 -33 -17 0 -10 6 -14 15 -10 19 7 19 -1 0 -21 -9 -8
-25 -13 -35 -10 -11 3 -20 1 -20 -4 0 -5 7 -9 15 -9 8 0 15 -9 15 -20 0 -11
-5 -20 -10 -20 -6 0 -4 -10 5 -23 8 -13 12 -27 8 -30 -3 -4 -2 -7 4 -7 8 0 8
-8 0 -25 -9 -18 -23 -26 -54 -31 -44 -6 -56 -27 -32 -51 6 -6 12 -23 13 -39 4
-37 16 -64 28 -64 19 0 38 -29 44 -68 l6 -39 -78 -1 c-125 -2 -163 29 -114 90
10 14 17 28 14 31 -3 3 9 14 28 23 25 14 29 19 16 22 -10 2 -18 8 -18 13 0 6
5 7 10 4 14 -9 13 16 -2 48 -15 31 -32 33 -88 11 -27 -11 -40 -22 -40 -35 0
-10 -5 -19 -11 -19 -7 0 -8 -11 -4 -29 3 -17 1 -40 -5 -52 -10 -17 -9 -20 2
-13 11 6 11 5 -1 -9 -11 -13 -11 -20 -1 -32 6 -8 10 -20 7 -27 -3 -8 -6 -5 -6
6 -1 11 -4 16 -8 12 -7 -7 -8 -14 -11 -103 -2 -42 -5 -51 -17 -47 -8 4 -15 2
-15 -3 0 -6 -12 -10 -27 -10 -66 -1 -146 -15 -159 -28 -18 -18 -18 -26 0 -19
14 5 40 -28 30 -39 -8 -7 -44 4 -44 14 0 5 -4 9 -9 9 -12 0 -36 -99 -26 -108
4 -4 98 -8 209 -10 l202 -3 -10 46 c-9 40 -14 45 -38 45 -15 0 -30 -4 -33 -10
-10 -17 -115 -12 -121 5 -13 34 16 47 100 43 l81 -3 2 30 c4 57 13 77 30 71 9
-4 20 -1 24 5 4 6 26 12 49 13 64 1 73 -17 67 -141 l-5 -103 42 0 c22 0 93 -3
156 -5 63 -3 122 -5 130 -4 8 0 224 2 480 5 256 2 471 6 478 9 9 3 12 24 10
72 l-3 68 -55 -2 c-167 -4 -382 -5 -430 0 -30 3 -110 6 -178 7 -67 1 -144 8
-170 14 l-47 12 -2 85 c-1 46 -5 113 -8 149 -4 36 -6 74 -5 85 2 28 2 43 -4
103 -4 37 -2 52 7 53 7 0 3 4 -8 8 -14 6 3 10 55 15 41 3 100 9 130 11 30 3
152 8 270 11 224 5 261 0 268 -38 2 -13 -8 -16 -61 -15 -83 0 -105 -12 -99
-53 5 -37 12 -38 150 -42 74 -2 105 -7 111 -17 6 -8 10 -9 12 -2 2 6 14 8 27
5 17 -5 21 -11 17 -25 -4 -13 -1 -19 9 -19 14 0 16 25 16 205 l0 204 -62 -5
c-118 -9 -148 -15 -148 -29 0 -33 -98 -45 -163 -20 -13 6 -16 3 -11 -9 5 -14
-3 -16 -66 -14 -58 1 -74 5 -77 18 -4 14 -12 15 -51 8 -99 -17 -162 -21 -162
-10 0 13 49 36 101 47 19 4 42 17 52 28 10 12 23 22 30 23 7 1 30 6 52 11 22
4 82 6 133 3 50 -3 92 -3 92 0 0 3 12 7 28 8 15 1 46 7 68 13 33 9 47 8 65 -2
30 -17 90 -39 107 -39 9 0 12 514 12 2535 0 1394 -3 2535 -6 2535 -3 0 -17
-13 -31 -30 -20 -24 -33 -30 -64 -30 -27 0 -39 -4 -39 -14 0 -8 -13 -19 -30
-25 -16 -5 -30 -15 -30 -22 0 -7 -3 -9 -7 -6 -3 4 -12 -1 -19 -11 -10 -14 -17
-15 -43 -6 -24 10 -33 9 -42 -2 -14 -17 -36 -18 -41 -2 -3 9 -14 7 -40 -5 -49
-23 -58 -22 -58 11 0 21 -12 39 -41 67 -37 34 -47 38 -104 41 -36 2 -67 -1
-70 -6 -4 -6 -11 -8 -16 -5 -5 4 -9 -3 -9 -14 0 -24 -37 -37 -78 -26 -15 4
-50 9 -77 12 -47 4 -54 2 -89 -30 l-38 -35 5 -65 c4 -51 2 -67 -9 -71 -24 -9
-16 -28 9 -20 20 6 20 4 -6 -20 -15 -14 -32 -26 -36 -26 -5 0 -11 -14 -15 -31
-4 -24 -10 -29 -24 -25 -13 5 -23 -1 -32 -20 -12 -22 -16 -23 -26 -10 -9 14
-14 12 -34 -11 -15 -17 -25 -23 -28 -15 -4 13 -51 16 -67 4 -6 -4 -17 -20 -25
-36 -12 -23 -12 -30 -2 -33 6 -3 12 -9 12 -15 0 -5 -9 -6 -20 -3 -13 4 -22 1
-26 -9 -3 -9 -12 -16 -20 -16 -17 0 -18 32 -2 48 20 20 -10 15 -42 -8 -16 -11
-42 -23 -59 -26 -26 -5 -28 -8 -16 -20 7 -8 18 -14 24 -14 6 0 11 -4 11 -10 0
-14 -13 -13 -46 4 -15 8 -31 13 -36 10 -4 -3 -8 0 -8 5 0 6 5 11 11 11 5 0 8
4 5 9 -3 4 -16 6 -30 4 -17 -4 -26 -14 -30 -35 -3 -17 -3 -34 0 -39 12 -20
-22 -7 -44 16 -23 23 -25 24 -54 9 -20 -11 -33 -12 -42 -5 -25 21 -77 -13 -60
-40 3 -5 1 -9 -4 -9 -6 0 -13 8 -16 17 -6 14 -9 15 -15 4 -5 -7 -25 -13 -45
-13 -28 0 -40 -6 -57 -29 -21 -30 -39 -38 -39 -17 0 6 7 20 16 29 16 17 15 18
-17 9 -24 -7 -35 -6 -40 2 -6 9 -14 9 -33 -2 -14 -7 -26 -17 -26 -22 0 -14
-50 -9 -56 6 -8 20 -29 10 -43 -21 -9 -20 -15 -23 -23 -15 -21 21 -64 14 -82
-14 -19 -27 -41 -28 -41 -1 0 9 -4 17 -8 17 -4 0 -11 0 -16 0 -4 0 -8 -17 -7
-37 1 -28 -3 -38 -16 -41 -10 -2 -18 1 -18 7 0 6 7 11 15 11 8 0 15 7 15 16 0
12 -6 15 -21 11 -11 -3 -27 -3 -35 0 -12 5 -12 9 3 26 17 20 17 20 0 14 -10
-4 -21 -7 -23 -7 -2 0 -4 -21 -4 -46 0 -45 0 -45 -22 -30 -30 22 -60 21 -57
-1 3 -33 -1 -36 -21 -18 -16 14 -23 16 -32 7 -17 -17 -28 -15 -28 4 0 8 -5 12
-10 9 -6 -4 -8 -14 -6 -23 3 -10 1 -24 -4 -32 -7 -12 -12 -11 -31 5 -16 14
-23 16 -26 8 -6 -18 -33 -16 -33 2 0 18 -21 20 -38 3 -9 -9 -15 -9 -24 0 -18
18 -46 15 -69 -7 -25 -23 -89 -33 -96 -14 -7 18 -30 16 -41 -3 -7 -13 -19 -16
-53 -11 -24 3 -45 10 -47 16 -2 5 -10 7 -18 4 -8 -3 -14 1 -14 11 0 11 -8 16
-27 15 -16 0 -39 3 -52 7 -17 5 -22 4 -17 -4 5 -8 -5 -12 -33 -12 -30 0 -41
-4 -41 -15 0 -8 -7 -15 -15 -15 -8 0 -15 8 -15 19 0 14 -6 17 -25 13 -14 -2
-25 -11 -25 -18 0 -8 -7 -14 -15 -14 -15 0 -10 29 6 40 5 3 0 11 -11 18 -16 9
-18 9 -14 -2 3 -7 -2 -21 -11 -30 -9 -9 -11 -16 -5 -16 6 0 8 -4 5 -10 -3 -5
-18 -10 -33 -10 -24 0 -25 1 -7 13 22 17 11 41 -15 34 -24 -6 -44 8 -35 23 6
9 9 9 15 1 8 -13 40 -4 40 11 0 7 -15 8 -40 4 -29 -4 -47 -2 -64 9 -26 17 -40
8 -30 -20 5 -13 2 -16 -12 -13 -10 2 -20 12 -23 23 -4 21 -41 74 -41 59 0 -4
-10 5 -23 22 -12 16 -30 30 -40 30 -14 2 -15 -1 -6 -12 16 -20 7 -26 -22 -15
-13 5 -18 10 -11 10 6 1 12 9 11 19 0 10 -3 12 -6 5 -5 -15 -33 -18 -33 -4 0
5 -3 17 -7 27 -5 14 -2 16 16 11 21 -5 22 -4 7 12 -9 10 -16 23 -16 30 0 7
-14 17 -31 23 -18 6 -28 15 -25 24 3 7 -4 24 -15 37 -10 14 -19 36 -19 49 0
23 -11 34 -120 132 -14 12 -47 47 -74 79 -27 31 -55 57 -62 57 -8 0 -14 5 -14
11 0 13 -50 75 -50 62 0 -10 -20 19 -20 30 0 5 6 5 13 1 13 -8 -13 25 -55 69
-16 16 -28 37 -28 48 0 11 -7 22 -15 25 -12 5 -13 10 -4 20 8 10 6 16 -10 26
-12 7 -21 16 -21 20 0 20 -166 168 -188 168 -5 0 -18 11 -28 25 -10 14 -23 25
-27 25 -5 0 -14 6 -22 13 -29 28 -100 83 -119 92 -12 6 -25 20 -31 32 -5 12
-22 25 -37 28 -16 4 -28 10 -28 15 0 4 -14 13 -31 20 -17 7 -37 19 -45 27 -21
22 -82 44 -89 33 -3 -6 1 -10 9 -10 9 0 16 -4 16 -10 0 -5 6 -10 14 -10 8 0
18 -4 21 -10 4 -6 -7 -10 -25 -10 -21 0 -30 4 -28 12 6 18 -84 60 -94 45 -4
-7 -3 -13 2 -15 16 -6 12 -22 -5 -22 -8 0 -15 6 -15 13 0 6 -13 25 -30 40 -16
16 -30 32 -30 37 0 4 -8 6 -18 3 -12 -3 -27 6 -43 26 -20 26 -31 31 -66 31
-34 0 -41 3 -37 15 5 11 -2 15 -26 15 -22 0 -33 5 -36 18 -7 24 -91 28 -97 4
-3 -9 -5 -4 -6 11 -1 16 -5 26 -11 22 -6 -4 -8 -11 -5 -16 4 -5 1 -9 -5 -9 -6
0 -8 10 -4 24 4 19 1 24 -20 28 -18 4 -26 1 -26 -9 0 -12 -13 -14 -67 -9 -38
3 -60 3 -50 0 27 -8 20 -21 -13 -26 -18 -3 -35 1 -41 9 -9 10 -7 13 10 13 18
0 20 3 12 18 -12 23 -87 28 -95 6 -3 -8 -10 -13 -15 -9 -6 3 -14 -3 -20 -12
-9 -17 -10 -17 -16 0 -4 9 -13 17 -21 17 -8 0 -14 6 -14 14 0 11 -7 12 -27 7
-14 -4 -49 -4 -77 0 -77 11 -148 11 -141 -1 3 -6 17 -7 30 -4 12 3 26 1 29 -5
4 -7 -1 -11 -13 -11 -34 0 -50 -52 -21 -70 12 -8 11 -10 -7 -10 -12 0 -25 5
-28 10 -3 6 -22 10 -41 10 -30 0 -33 2 -21 14 7 8 26 12 43 10 26 -3 26 -3 -5
7 -25 8 -36 7 -41 -2 -4 -6 -12 -9 -18 -5 -5 3 -22 -1 -38 -9 -15 -7 -31 -12
-36 -9 -13 8 -9 31 7 38 8 3 15 1 15 -5 0 -6 5 -7 11 -4 6 5 3 13 -10 22 -24
16 -41 10 -41 -15 0 -12 -3 -13 -12 -4 -17 17 -59 16 -52 -2 4 -10 -7 -13 -48
-12 -55 2 -101 -11 -92 -25 7 -12 -3 -11 -28 2 -20 11 -21 9 -15 -24 5 -31 2
-36 -22 -46 -22 -10 -27 -18 -28 -53 -2 -48 -7 -55 -28 -38 -11 9 -12 17 -4
32 8 16 7 22 -8 33 -24 18 -39 7 -16 -12 10 -8 13 -12 6 -9 -9 5 -9 -2 -2 -26
6 -23 5 -34 -4 -41 -9 -7 -9 -10 0 -13 7 -3 28 -16 48 -29 20 -14 42 -22 51
-18 14 5 15 3 5 -15 l-12 -22 -67 34 c-37 19 -75 44 -86 57 -15 17 -20 19 -27
8 -8 -14 -12 -15 -49 -18 -18 -1 -19 -4 -10 -21 12 -22 5 -44 -11 -35 -5 4 -9
17 -9 31 0 13 -4 24 -10 24 -5 0 -10 8 -11 18 -1 9 -5 -2 -11 -26 -5 -23 -13
-40 -17 -38 -5 3 -11 33 -15 67 -3 34 -8 65 -11 67 -3 3 -14 -4 -26 -17 -11
-12 -38 -29 -60 -37 -21 -9 -36 -21 -33 -26 4 -6 10 -5 15 3 4 7 11 10 15 6
12 -11 -17 -37 -41 -37 -13 0 -25 -3 -27 -8 -5 -12 -90 -42 -100 -36 -5 3 -3
13 4 22 11 15 11 15 -3 5 -9 -7 -19 -10 -22 -7 -3 3 -11 2 -18 -2 -7 -4 -27
-9 -43 -11 -17 -2 -42 -14 -56 -28 -33 -32 -44 -32 -36 0 4 14 3 25 -1 25 -14
-1 -47 -30 -41 -36 8 -7 -73 -84 -88 -84 -5 0 -23 -13 -39 -30 -16 -16 -35
-30 -42 -30 -8 0 -27 -7 -43 -15 -31 -16 -40 -9 -18 13 9 9 8 12 -5 12 -9 0
-17 -7 -17 -15 0 -18 -12 -19 -28 -3 -7 7 -12 8 -12 2 0 -6 3 -14 8 -18 4 -4
7 -11 8 -14 0 -4 4 -15 9 -25 6 -15 10 -16 24 -5 9 7 27 19 40 26 23 13 24 13
18 -10 -4 -12 -7 -27 -7 -31 0 -5 -4 -6 -9 -3 -5 3 -8 -2 -7 -12 0 -10 -6 -16
-16 -16 -10 1 -18 -4 -18 -12 0 -8 -4 -14 -8 -14 -15 0 -90 -81 -106 -113 -17
-38 -53 -70 -66 -62 -6 4 -10 -3 -10 -14 0 -14 -6 -21 -20 -21 -13 0 -24 -10
-30 -25 -13 -34 -23 -32 -18 4 5 35 -14 32 -30 -4 -6 -13 -36 -42 -66 -64 -49
-36 -58 -40 -76 -29 -13 8 -18 20 -15 36 2 15 0 22 -8 19 -7 -3 -11 -10 -10
-16 2 -6 0 -11 -5 -12 -29 -3 -47 -9 -50 -19 -2 -5 -7 -8 -11 -6 -3 3 -18 -5
-31 -15 -24 -20 -24 -20 -2 -9 27 13 42 6 24 -12 -8 -8 -6 -17 9 -36 15 -19
16 -28 8 -38 -7 -8 -9 -29 -6 -49 3 -21 2 -33 -4 -30 -5 4 -9 1 -9 -4 0 -6 5
-11 12 -11 6 0 4 -7 -5 -18 -10 -10 -17 -28 -17 -39 0 -11 -10 -31 -23 -45
-13 -14 -21 -31 -19 -38 3 -8 -1 -11 -10 -8 -8 4 -21 2 -29 -3 -10 -6 -10 -9
-1 -9 6 0 12 -6 12 -13 0 -14 -35 -47 -50 -47 -6 0 -10 -7 -10 -15 0 -8 -4
-15 -10 -15 -5 0 -10 5 -10 10 0 6 -8 10 -17 10 -15 0 -15 -2 -4 -9 12 -7 10
-14 -8 -36 -11 -15 -21 -34 -21 -41 0 -8 -7 -14 -15 -14 -8 0 -15 7 -15 16 0
14 -2 15 -16 3 -15 -12 -16 -11 -10 9 6 17 3 22 -11 22 -17 1 -17 1 1 11 12 8
20 8 25 1 4 -6 15 -3 30 9 l23 19 -23 0 c-24 0 -82 -16 -112 -32 -14 -7 -24
-5 -39 8 -16 15 -22 16 -39 6 -11 -7 -25 -10 -31 -6 -7 4 -8 3 -4 -4 5 -8 -1
-12 -16 -13 -14 -1 -7 -5 18 -10 57 -13 53 -35 -7 -33 -62 1 -80 16 -73 60 5
29 2 34 -15 34 -12 0 -21 5 -21 11 0 6 -6 9 -14 6 -8 -3 -17 -3 -20 0 -3 3
-25 8 -48 10 -79 7 -67 2 -137 61 -34 29 -35 30 -25 78 8 46 11 49 44 54 23 3
6 6 -49 10 -110 7 -120 26 -19 37 40 4 83 7 94 5 12 -1 27 4 34 13 7 8 18 15
24 15 6 0 4 -5 -4 -11 -12 -9 -12 -10 3 -5 10 3 28 6 40 7 19 0 18 2 -6 11
-15 5 -27 16 -27 24 0 8 -4 14 -10 14 -12 0 -13 27 -1 32 4 2 12 13 15 26 6
19 4 22 -17 22 -16 0 -26 7 -30 20 -3 12 -14 20 -29 21 -19 0 -15 4 17 18 l40
18 -28 7 c-32 8 -34 20 -7 43 11 10 20 21 20 25 0 13 -28 9 -32 -4 -3 -8 -7
-8 -11 -2 -3 6 7 24 24 41 31 34 40 54 14 33 -22 -18 -31 -4 -12 18 11 12 13
22 6 32 -8 13 -13 10 -32 -13 -18 -21 -26 -24 -35 -15 -9 9 -8 16 6 31 17 20
16 20 -20 14 -29 -4 -38 -2 -38 9 0 8 -4 14 -10 14 -5 0 -7 13 -3 30 3 19 1
30 -6 30 -6 0 -11 -7 -11 -16 0 -34 -88 4 -90 39 0 4 5 7 10 7 6 0 10 5 10 10
0 6 -7 10 -16 10 -9 0 -27 9 -41 20 -24 18 -27 19 -38 4 -8 -12 -14 -14 -19
-6 -12 20 -32 13 -43 -15 -8 -19 -11 -22 -10 -8 2 16 -5 21 -35 23 -42 4 -46
9 -20 28 15 12 15 15 2 24 -21 14 -30 12 -30 -5 0 -8 -4 -15 -10 -15 -5 0 -10
7 -10 16 0 12 -6 15 -25 10 -18 -5 -25 -2 -25 9 0 27 -1 30 -17 48 -9 9 -13
20 -8 25 4 4 9 2 12 -4 5 -15 63 -5 63 11 0 7 -16 15 -37 17 -29 4 -41 0 -54
-16 -23 -28 -36 -13 -16 17 10 16 12 29 6 38 -8 12 -10 12 -18 0 -11 -17 -34
-4 -27 15 3 9 -2 14 -14 14 -14 0 -18 -5 -13 -17 5 -14 1 -15 -26 -10 -27 6
-31 4 -29 -11 5 -27 -61 -23 -89 5 -12 13 -18 23 -13 23 6 0 10 7 10 15 0 17
-35 21 -45 5 -11 -19 -35 -10 -41 15 -5 19 -10 23 -23 15 -10 -5 -23 -5 -32 1
-7 5 -27 9 -44 9 -23 0 -27 3 -15 10 10 6 11 10 3 10 -8 0 -13 15 -13 41 0 22
4 38 9 35 5 -3 7 -16 4 -27 -5 -19 -3 -21 28 -15 l34 7 -23 -20 c-28 -24 -20
-30 38 -27 46 2 67 22 28 28 -13 2 -21 8 -18 13 3 6 15 9 27 7 12 -1 24 2 28
8 3 5 0 10 -8 10 -8 0 -22 9 -32 20 -22 24 -29 25 -50 3 -10 -10 -19 -12 -23
-6 -10 14 -44 26 -72 25 -23 -2 -23 -1 -5 8 17 8 16 9 -10 8 -16 0 -38 3 -48
7 -11 4 -23 3 -30 -4 -8 -8 -8 -11 1 -11 7 0 12 -5 12 -10 0 -6 -11 -8 -25 -4
-16 4 -25 2 -25 -6 0 -6 -4 -9 -9 -6 -14 9 -1 55 15 49 19 -7 18 21 -1 37 -8
6 -19 9 -25 5 -11 -7 -26 22 -16 32 3 4 12 1 18 -5 16 -16 28 -15 28 3 0 9 -7
18 -15 21 -8 4 -15 15 -15 25 0 10 -5 19 -11 19 -6 0 -8 -8 -5 -18 7 -22 -31
-72 -50 -65 -8 3 -14 11 -14 18 0 7 -9 15 -20 18 -11 3 -20 10 -20 16 0 6 7 8
15 5 11 -5 15 1 15 20 0 24 -2 25 -20 14 -16 -10 -24 -10 -40 0 -11 6 -29 12
-40 12 -11 0 -20 5 -20 10 0 6 5 10 10 10 15 0 12 33 -5 56 -14 19 -14 19 -16
-1 -1 -11 0 -31 1 -44 2 -31 -17 -42 -47 -28 -19 9 -26 8 -34 -4 -7 -10 -8 -6
-3 14 5 21 3 27 -10 27 -15 0 -38 39 -35 58 4 24 -3 42 -16 42 -8 0 -15 7 -15
16 0 9 -7 14 -17 12 -12 -3 -17 -12 -16 -26 2 -12 0 -22 -3 -22 -12 0 -34 30
-35 47 0 17 -1 17 -7 1 -6 -15 -10 -13 -27 12 -18 27 -28 32 -51 29 -14 -2
-22 26 -12 38 8 10 7 12 -4 8 -8 -3 -21 1 -28 10 -10 12 -10 15 4 15 9 0 16 5
16 10 0 6 -10 10 -23 10 -13 0 -28 5 -35 12 -9 9 -12 9 -12 0 0 -20 -17 -13
-23 10 -4 13 0 26 10 33 14 10 12 13 -13 19 -25 7 -27 9 -11 18 12 6 16 16 12
29 -4 10 -2 19 4 19 16 0 24 -21 12 -33 -15 -15 -14 -27 3 -27 8 0 17 9 21 19
7 24 -15 63 -32 56 -16 -6 -17 7 -1 23 9 9 7 13 -5 18 -19 7 -50 -13 -42 -26
3 -5 0 -12 -6 -16 -6 -4 -16 1 -21 10 -7 12 -14 14 -28 6 -28 -15 -32 -12 -18
11 11 17 10 22 -6 34 -17 13 -18 18 -6 40 7 14 22 25 32 25 26 0 22 15 -7 28
-14 6 -25 16 -25 22 0 6 -6 10 -12 8 -7 -1 -22 1 -34 5 -12 4 -35 1 -55 -7
-24 -11 -28 -15 -14 -16 33 -1 52 -17 37 -32 -19 -19 -14 -31 13 -26 29 6 30
1 9 -27 -9 -12 -18 -16 -22 -10 -4 6 -20 16 -37 24 -28 12 -29 14 -11 26 26
19 10 38 -25 30 -18 -4 -29 -3 -29 4 0 6 -7 11 -15 11 -11 0 -15 11 -15 40 0
43 16 55 23 18 l4 -23 8 23 c6 18 10 21 17 10 7 -9 8 -8 4 5 -3 10 -6 28 -7
40 l0 22 -9 -22 c-5 -13 -16 -23 -25 -23 -20 0 -19 20 3 36 15 12 15 13 -9 14
-20 0 -28 6 -33 26 -4 14 -11 24 -17 22 -6 -2 -9 -8 -7 -13 2 -6 5 -9 8 -8 3
1 6 -14 7 -32 1 -29 -1 -32 -20 -27 -18 4 -20 3 -11 -9 6 -8 8 -25 5 -38 -6
-21 -8 -22 -20 -7 -9 11 -11 29 -7 58 6 34 3 45 -15 64 l-22 24 22 0 c31 0 22
22 -13 31 -21 6 -33 3 -45 -8 -15 -16 -15 -16 1 -10 10 3 18 2 18 -3 0 -6 -12
-10 -26 -10 -21 0 -25 4 -21 20 5 20 0 20 -559 20 l-564 0 0 -2639z m1191
2510 c-30 -30 -48 -16 -19 14 13 13 27 20 32 15 4 -4 -2 -18 -13 -29z m99 -53
c0 -19 -2 -20 -10 -8 -13 19 -13 30 0 30 6 0 10 -10 10 -22z m-80 -3 c0 -8 -4
-15 -9 -15 -13 0 -22 16 -14 24 11 11 23 6 23 -9z m294 -61 c23 -9 20 -24 -4
-24 -11 0 -20 7 -20 15 0 17 2 18 24 9z m-224 -14 c13 -8 13 -10 -2 -10 -9 0
-20 5 -23 10 -8 13 5 13 25 0z m66 -48 c-18 -18 -31 -10 -23 12 4 10 13 13 22
9 15 -5 15 -7 1 -21z m-76 8 c-8 -5 -19 -10 -25 -10 -5 0 -3 5 5 10 8 5 20 10
25 10 6 0 3 -5 -5 -10z m120 -40 c0 -5 -7 -10 -15 -10 -8 0 -15 5 -15 10 0 6
7 10 15 10 8 0 15 -4 15 -10z m230 -102 c0 -16 -3 -19 -11 -11 -6 6 -8 16 -5
22 11 17 16 13 16 -11z m-56 -10 c-4 -6 1 -17 10 -24 16 -11 16 -13 -4 -19
-22 -7 -51 9 -49 29 0 7 2 6 6 -1 8 -20 23 -15 23 7 0 11 5 20 11 20 5 0 7 -5
3 -12z m101 -137 c3 -5 1 -12 -5 -16 -5 -3 -10 1 -10 9 0 18 6 21 15 7z m55
-55 c0 -3 -4 -8 -10 -11 -5 -3 -10 -1 -10 4 0 6 5 11 10 11 6 0 10 -2 10 -4z
m215 -115 c3 -5 1 -12 -5 -16 -5 -3 -10 1 -10 9 0 18 6 21 15 7z m4680 -177
c-8 -6 -12 -14 -8 -17 3 -4 2 -7 -4 -7 -17 0 -24 30 -11 44 9 9 16 10 25 2 9
-9 9 -13 -2 -22z m-255 -24 c12 -8 9 -10 -13 -10 -16 0 -26 4 -22 10 8 12 16
12 35 0z m-455 -38 c22 3 105 -47 105 -63 0 -19 -24 -20 -39 -3 -31 38 -50 48
-65 35 -10 -8 -16 -9 -21 -1 -3 5 -14 10 -24 10 -20 0 -45 23 -35 33 3 3 18 1
32 -4 14 -6 36 -9 47 -7z m223 -1 c3 -10 -3 -12 -29 -6 -51 11 -61 27 -15 23
22 -2 41 -9 44 -17z m55 6 c4 3 7 1 7 -5 0 -17 -16 -15 -31 6 -12 15 -12 16 2
5 9 -7 19 -10 22 -6z m-4003 -11 c0 -2 -7 -6 -15 -10 -8 -3 -15 -1 -15 4 0 6
7 10 15 10 8 0 15 -2 15 -4z m3820 -11 c0 -9 -6 -12 -15 -9 -8 4 -15 10 -15
15 0 5 7 9 15 9 8 0 15 -7 15 -15z m260 -5 c24 -19 24 -20 3 -20 -32 0 -53 10
-53 26 0 20 21 17 50 -6z m240 10 c0 -5 -16 -10 -35 -10 -19 0 -35 5 -35 10 0
6 16 10 35 10 19 0 35 -4 35 -10z m-335 -19 c3 -5 1 -12 -5 -16 -5 -3 -10 1
-10 9 0 18 6 21 15 7z m-255 -31 c0 -5 -4 -10 -10 -10 -5 0 -10 5 -10 10 0 6
5 10 10 10 6 0 10 -4 10 -10z m120 -58 c-12 -2 -29 -1 -37 2 -14 6 -14 8 2 20
15 11 21 11 37 -3 18 -16 18 -16 -2 -19z m140 -2 c0 -5 -15 -10 -34 -10 -19 0
-38 5 -41 10 -4 6 10 10 34 10 23 0 41 -4 41 -10z m-90 -39 c0 -13 -29 -35
-37 -28 -7 8 15 37 28 37 5 0 9 -4 9 -9z m170 0 c0 -5 -9 -11 -20 -14 -20 -5
-26 3 -13 16 9 10 33 8 33 -2z m-105 -22 c4 -6 5 -13 2 -16 -8 -7 -47 7 -47
18 0 13 37 11 45 -2z m-3662 -14 c0 -6 -7 -11 -16 -13 -12 -3 -15 1 -11 13 7
17 25 17 27 0z m3137 -11 c0 -8 -7 -14 -15 -14 -8 0 -15 9 -15 20 0 13 5 18
15 14 8 -4 15 -12 15 -20z m65 -33 c-3 -12 -13 -21 -21 -21 -18 0 -18 9 3 32
20 22 27 17 18 -11z m1850 9 c-3 -5 -10 -10 -16 -10 -5 0 -9 5 -9 10 0 6 7 10
16 10 8 0 12 -4 9 -10z m-1775 -21 c0 -14 -24 -23 -28 -11 -2 7 -10 12 -18 12
-8 0 -14 4 -14 8 0 5 14 7 30 4 17 -2 30 -8 30 -13z m-3120 -5 c0 -8 -5 -12
-10 -9 -6 4 -8 11 -5 16 9 14 15 11 15 -7z m2665 6 c-3 -5 -10 -10 -16 -10 -5
0 -9 5 -9 10 0 6 7 10 16 10 8 0 12 -4 9 -10z m-55 -4 c0 -3 -4 -8 -10 -11 -5
-3 -10 -1 -10 4 0 6 5 11 10 11 6 0 10 -2 10 -4z m379 -15 c7 -5 10 -14 6 -20
-5 -9 -10 -9 -21 0 -26 22 -14 38 15 20z m-324 -21 c-4 -11 -2 -20 4 -20 6 0
11 -4 11 -10 0 -20 -27 -10 -38 14 -8 19 -8 26 1 30 23 9 28 6 22 -14z m584
-144 c8 -10 9 -16 1 -21 -13 -8 -30 3 -30 21 0 18 14 18 29 0z m-684 -46 c3
-6 -4 -10 -17 -11 -13 0 -17 -3 -10 -6 15 -6 6 -23 -12 -23 -16 0 -16 31 -1
42 14 11 33 10 40 -2z m-1978 -6 c-3 -3 -12 -4 -19 -1 -8 3 -5 6 6 6 11 1 17
-2 13 -5z m4647 -39 c3 -9 0 -15 -9 -15 -8 0 -15 7 -15 15 0 8 4 15 9 15 5 0
11 -7 15 -15z m-3424 -355 c-14 -27 -32 -16 -20 13 4 12 12 31 16 42 7 18 8
17 12 -7 2 -15 -2 -36 -8 -48z m-180 -34 c0 -3 -11 -6 -25 -6 -22 0 -24 2 -13
19 9 16 14 17 25 6 7 -8 13 -16 13 -19z m63 4 c6 -23 -12 -39 -23 -20 -4 7
-13 9 -19 6 -6 -4 -11 -3 -11 3 0 9 28 30 41 31 4 0 9 -9 12 -20z m7157 -20
c0 -5 -4 -10 -10 -10 -5 0 -10 5 -10 10 0 6 5 10 10 10 6 0 10 -4 10 -10z
m-7193 -52 c-3 -8 -6 -5 -6 6 -1 11 2 17 5 13 3 -3 4 -12 1 -19z m-822 -18
c-3 -5 -11 -10 -16 -10 -6 0 -7 5 -4 10 3 6 11 10 16 10 6 0 7 -4 4 -10z
m7603 -257 c-4 -22 -22 -20 -26 1 -2 10 3 16 13 16 10 0 15 -7 13 -17z m-5147
-77 c1 5 1 12 1 15 -1 9 47 -2 53 -12 3 -4 12 -6 20 -3 8 4 13 9 11 13 -5 8 0
8 101 17 68 6 73 5 110 -23 21 -16 56 -35 78 -42 42 -13 121 -63 142 -89 9
-11 34 -15 93 -16 68 -1 81 2 86 17 3 9 10 17 15 17 5 0 9 9 9 20 0 30 11 25
54 -25 21 -25 46 -45 54 -45 12 0 13 3 4 12 -7 7 -12 18 -12 26 0 8 -7 29 -16
48 -16 33 -16 37 2 69 10 19 22 35 26 35 19 0 88 -77 88 -98 0 -18 3 -21 17
-14 16 10 82 -13 106 -37 8 -8 16 -6 29 6 10 9 19 14 21 12 27 -38 57 -91 57
-99 0 -5 9 -10 20 -10 23 0 100 -66 100 -86 0 -8 4 -14 8 -14 5 0 14 -10 21
-22 15 -28 54 -48 73 -37 9 6 15 2 20 -14 l6 -22 7 23 c5 16 15 22 36 22 15 0
31 -4 34 -10 3 -5 19 -7 35 -4 16 4 42 2 59 -4 21 -7 31 -7 33 0 5 13 37 -2
73 -34 15 -13 21 -27 17 -40 -4 -17 -1 -19 17 -13 12 4 21 2 21 -4 0 -6 6 -11
13 -11 26 0 68 -55 65 -86 -1 -16 4 -39 10 -51 7 -12 12 -29 12 -39 0 -13 -3
-14 -15 -4 -19 15 -19 12 0 -78 9 -41 14 -92 11 -113 -2 -21 -1 -39 3 -39 18
0 32 -59 34 -142 1 -52 7 -92 13 -96 6 -4 15 -18 19 -32 4 -14 13 -32 20 -40
13 -16 40 -127 36 -148 -1 -8 3 -20 10 -29 14 -16 22 -373 9 -373 -17 0 -146
53 -161 66 -8 8 -25 14 -37 14 -19 0 -20 -3 -11 -32 16 -56 11 -64 -18 -30
-27 31 -34 33 -143 48 -63 9 -141 14 -172 11 -32 -3 -104 1 -160 9 -57 7 -107
14 -112 14 -5 0 -3 7 4 15 17 20 82 19 276 -5 168 -21 270 -26 244 -11 -8 5
-40 11 -70 15 -30 4 -127 15 -215 26 -384 48 -804 34 -1120 -36 -60 -14 -130
-31 -155 -39 -72 -23 -279 -55 -350 -54 -36 1 -57 3 -47 6 9 2 15 8 12 13 -3
5 -11 7 -18 4 -10 -3 -13 10 -14 52 0 34 -6 59 -13 64 -16 10 -42 75 -45 113
-1 17 -13 36 -31 50 -32 23 -42 32 -88 72 -17 14 -45 33 -63 42 -18 8 -33 21
-33 28 0 8 -13 23 -29 34 -25 18 -30 19 -41 6 -7 -8 -17 -15 -22 -15 -5 0 -2
7 6 16 21 21 20 31 -5 37 -12 3 -18 10 -14 16 3 6 2 11 -3 11 -8 0 -19 27 -23
57 -1 5 -13 13 -28 20 -22 10 -23 12 -6 13 19 1 19 1 2 14 -11 8 -39 13 -75
11 -31 -1 -77 3 -102 8 -25 5 -73 11 -107 12 -34 2 -76 10 -92 18 -27 13 -30
13 -36 -1 -3 -10 -9 -12 -13 -7 -12 17 -56 22 -85 10 -13 -6 -16 -4 -11 9 8
20 -6 21 -32 1 -29 -22 -44 -18 -58 16 -7 17 -16 27 -19 21 -4 -5 -17 -12 -29
-15 -13 -2 -31 -8 -40 -12 -11 -4 -18 -3 -18 4 0 6 6 11 13 11 7 0 13 9 13 20
0 11 -3 20 -7 20 -3 0 -4 11 -2 24 3 16 13 26 27 28 11 2 21 10 21 18 0 8 6
20 14 26 22 18 5 32 -49 39 -48 7 -64 18 -37 28 6 2 27 2 45 -1 27 -4 31 -2
26 12 -3 9 -13 16 -21 16 -8 0 -13 6 -10 13 2 7 17 11 35 9 31 -3 31 -3 26 35
-2 21 -7 47 -11 58 -5 18 -4 18 11 6 21 -17 33 -7 16 14 -11 13 -10 14 4 9 9
-3 16 -1 16 4 0 13 -7 17 -41 26 -24 5 -27 3 -32 -27 -3 -21 0 -36 9 -43 27
-22 15 -32 -33 -26 -39 4 -45 3 -40 -11 3 -8 0 -20 -7 -26 -10 -9 -15 -7 -19
8 -3 12 1 22 9 25 8 3 14 12 14 20 0 10 6 13 15 10 10 -4 15 0 15 15 0 24 -4
25 -31 11 -22 -12 -24 -7 -7 19 9 15 7 23 -8 44 -10 15 -27 27 -36 27 -20 0
-25 16 -5 18 40 5 77 15 77 21 0 4 -11 18 -25 31 -14 13 -25 27 -25 31 0 14
34 19 42 7 5 -8 6 -1 2 16 -5 21 -4 27 5 22 6 -4 11 -13 11 -20 0 -8 10 -16
23 -20 32 -8 47 -7 47 4 0 6 -9 10 -20 10 -11 0 -20 7 -20 15 0 8 7 15 15 15
8 0 15 5 15 10 0 6 9 10 21 10 13 0 18 -4 13 -12 -5 -7 -2 -9 7 -6 39 15 59
19 58 11 -3 -20 2 -25 16 -13 8 7 13 16 10 20 -3 5 4 11 15 15 17 5 26 29 21
58 0 4 10 7 24 7 22 0 30 -9 26 -32 0 -5 8 -8 19 -8 11 0 20 7 20 15 0 8 7 15
15 15 8 0 15 7 15 15 0 19 9 19 31 -1 16 -14 18 -13 24 16 6 29 9 31 47 28 32
-2 38 -5 35 -20 -3 -11 2 -22 13 -28 25 -14 41 -13 37 3 -1 7 10 12 28 13 17
0 40 6 52 12 14 8 24 9 28 2 4 -7 13 -6 26 1 11 6 28 8 36 5 22 -9 53 3 53 20
0 8 7 14 15 14 8 0 15 5 15 10 0 6 -4 10 -9 10 -18 0 -42 33 -36 48 3 8 -4 25
-16 38 -12 12 -22 36 -24 52 -1 16 -5 34 -9 40 -9 16 7 15 22 0 6 -6 32 -11
57 -9 29 1 45 -2 45 -10 0 -7 9 -9 21 -6 12 3 22 0 26 -9 3 -8 11 -14 19 -14
8 0 11 -6 8 -15 -7 -17 4 -19 40 -5 14 5 26 6 26 1 0 -5 9 -7 19 -4 11 3 27
-3 38 -14 11 -11 34 -19 54 -20 20 0 50 -8 67 -17 17 -9 44 -16 60 -16 15 0
37 -7 48 -15 19 -14 104 -21 104 -9 0 4 -20 31 -45 60 -25 28 -45 57 -45 63 0
6 -4 11 -10 11 -5 0 -10 6 -10 13 0 16 47 15 77 -1 14 -8 24 -9 28 -2 3 5 2
10 -3 10 -5 0 -12 10 -14 23 -4 20 -1 23 20 19 18 -4 23 -1 17 8 -5 9 -2 10
14 5 14 -4 21 -2 21 7 1 7 9 3 20 -11 11 -13 21 -19 21 -15z m-2021 -32 c0 -8
-4 -12 -10 -9 -5 3 -10 10 -10 16 0 5 5 9 10 9 6 0 10 -7 10 -16z m6916 -61
c-10 -10 -19 5 -10 18 6 11 8 11 12 0 2 -7 1 -15 -2 -18z m-473 -20 c-7 -2
-19 -2 -25 0 -7 3 -2 5 12 5 14 0 19 -2 13 -5z m-6393 -7 c0 -2 -9 -6 -20 -9
-11 -3 -18 -1 -14 4 5 9 34 13 34 5z m-150 -36 c0 -5 -8 -10 -17 -10 -15 0
-16 2 -3 10 19 12 20 12 20 0z m109 -46 c8 -7 -3 -11 -47 -18 -29 -4 -41 -3
-37 4 3 5 13 10 21 10 8 0 14 5 14 11 0 9 37 4 49 -7z m4801 -14 c0 -5 -2 -10
-4 -10 -3 0 -8 5 -11 10 -3 6 -1 10 4 10 6 0 11 -4 11 -10z m-3924 -67 c-10
-10 -19 5 -10 18 6 11 8 11 12 0 2 -7 1 -15 -2 -18z m4204 -17 c0 -3 -4 -8
-10 -11 -5 -3 -10 -1 -10 4 0 6 5 11 10 11 6 0 10 -2 10 -4z m-5150 -26 c0
-12 -37 -14 -44 -2 -2 4 6 9 20 10 13 1 24 -3 24 -8z m600 -150 c0 -5 -4 -10
-10 -10 -5 0 -10 5 -10 10 0 6 5 10 10 10 6 0 10 -4 10 -10z m-1750 -179 c0
-24 -27 -48 -40 -35 -5 5 -7 19 -4 32 8 27 44 30 44 3z m1740 -10 c0 -6 -4
-13 -10 -16 -5 -3 -10 1 -10 9 0 9 5 16 10 16 6 0 10 -4 10 -9z m-1760 -80 c0
-39 -21 -55 -46 -36 -10 8 -14 15 -8 15 16 0 25 38 10 44 -6 2 1 5 17 5 23 1
27 -3 27 -28z m1795 -11 c3 -5 -1 -10 -9 -10 -9 0 -16 5 -16 10 0 6 4 10 9 10
6 0 13 -4 16 -10z m-1842 -153 c-3 -31 -10 -57 -15 -57 -4 0 -6 10 -4 23 3 12
8 39 11 61 9 57 15 39 8 -27z m70 -149 c11 -29 -6 -79 -33 -98 -42 -30 -48
-25 -42 33 4 53 21 77 53 77 9 0 19 -6 22 -12z m2189 -319 c9 -5 29 -9 45 -9
16 0 51 -15 80 -34 28 -18 67 -36 86 -40 19 -4 41 -14 48 -23 8 -9 29 -22 47
-30 17 -7 32 -19 32 -27 0 -7 11 -22 25 -32 17 -13 21 -20 12 -26 -7 -5 -3 -8
13 -8 19 0 21 -3 11 -9 -11 -7 -9 -10 10 -13 13 -1 23 -7 22 -13 -1 -5 3 -16
9 -22 13 -17 14 -17 -104 7 -55 12 -141 27 -192 35 -50 8 -129 21 -176 29 -76
14 -125 17 -208 16 -23 0 -68 19 -47 20 6 0 11 12 11 26 1 14 10 34 20 45 9
10 14 19 11 19 -4 0 2 9 13 20 12 12 17 26 13 36 -4 11 -2 15 4 11 7 -5 9 1 5
15 -5 19 -2 21 24 15 17 -3 36 -2 42 2 15 9 121 2 144 -10z m-2278 -27 c-1 -7
-2 -31 -3 -54 -2 -57 -14 -76 -35 -59 -18 15 -22 66 -5 76 6 4 8 13 5 20 -5
15 14 37 29 32 5 -2 10 -9 9 -15z m8671 -232 c-1 -21 -15 -41 -15 -22 0 7 -9
12 -20 12 -30 0 -24 18 8 23 15 2 27 5 28 6 0 0 0 -8 -1 -19z m-4330 0 c4 -6
-29 -9 -92 -8 -86 1 -91 2 -43 8 88 11 128 11 135 0z m-6460 -25 c152 -13 247
-28 292 -47 47 -19 4 -20 -129 -4 -117 15 -241 37 -318 56 -37 9 -14 9 155 -5z
m4032 -21 c-3 -3 -12 -4 -19 -1 -8 3 -5 6 6 6 11 1 17 -2 13 -5z m2678 -18
c195 -33 251 -68 275 -167 18 -76 15 -215 -9 -354 -39 -235 -87 -288 -306
-340 -274 -65 -777 -71 -895 -10 -17 9 -39 13 -49 10 -21 -6 -86 55 -86 82 0
10 -6 17 -13 15 -8 -1 -11 2 -7 8 3 5 -6 22 -22 37 -15 16 -28 33 -28 38 -1
25 -18 55 -30 55 -14 0 -31 37 -22 47 9 8 -14 63 -23 58 -11 -7 -32 64 -23 78
4 6 1 7 -6 3 -9 -6 -11 1 -6 27 5 26 3 36 -9 40 -9 4 -16 14 -16 24 0 14 2 15
9 5 5 -8 8 17 7 60 -1 40 2 84 6 98 9 33 55 83 94 103 36 19 162 50 294 73
188 33 696 39 865 10z m4085 -16 c0 -10 -5 -22 -11 -26 -8 -4 -9 0 -4 15 5 17
2 21 -14 21 -21 0 -27 10 -15 23 12 11 44 -13 44 -33z m-6942 23 c-10 -2 -28
-2 -40 0 -13 2 -5 4 17 4 22 1 32 -1 23 -4z m80 0 c-10 -2 -26 -2 -35 0 -10 3
-2 5 17 5 19 0 27 -2 18 -5z m-193 -12 c-26 -10 -109 -21 -101 -13 4 3 25 9
49 13 58 9 76 9 52 0z m-135 -25 c0 -2 -15 -13 -34 -24 -19 -11 -42 -34 -50
-50 -17 -33 -32 -214 -19 -235 4 -6 8 -38 9 -69 3 -67 8 -78 35 -78 10 0 18
-6 17 -12 -5 -21 37 -20 62 2 12 11 35 20 49 20 17 0 22 -3 13 -8 -7 -5 -10
-16 -6 -25 4 -11 1 -18 -7 -18 -8 -1 1 -4 19 -8 18 -3 32 -10 32 -15 -2 -11
20 -26 39 -26 11 0 11 3 -2 18 -15 16 -14 18 26 18 23 0 62 5 87 10 39 8 45
13 45 34 0 16 6 25 15 25 8 0 15 -6 15 -12 0 -7 3 -13 8 -13 4 0 11 0 17 0 5
0 7 6 4 14 -4 10 2 12 20 9 17 -4 30 2 42 16 18 20 41 30 30 12 -6 -9 39 -4
69 9 41 17 65 19 65 4 0 -18 8 -18 27 2 11 11 19 12 26 5 17 -17 26 -13 20 9
-4 16 0 20 20 20 14 0 29 5 33 11 4 7 22 9 49 4 27 -3 46 -2 50 5 3 5 25 19
47 30 31 15 45 17 54 9 10 -8 16 -5 25 15 7 14 18 26 26 26 22 0 14 18 -9 22
-16 2 -22 9 -20 22 2 10 -1 15 -7 11 -7 -4 -8 0 -4 11 4 11 3 15 -4 11 -7 -5
-9 0 -6 12 7 26 39 55 47 43 8 -13 -3 -42 -15 -42 -5 0 -9 -7 -9 -15 0 -10 11
-15 35 -15 37 0 43 -8 23 -28 -7 -7 -8 -12 -2 -12 5 0 18 9 28 21 10 13 25 19
36 16 26 -7 44 17 36 49 -7 26 -34 70 -68 108 -23 26 -23 46 0 46 23 0 143
-35 195 -57 21 -9 36 -22 33 -28 -2 -7 3 -12 11 -11 9 0 22 -13 30 -31 8 -20
9 -33 3 -33 -5 0 -10 5 -10 11 0 5 -5 7 -11 3 -8 -4 -8 -8 0 -13 12 -8 17 -58
8 -86 -7 -19 -76 -55 -107 -55 -34 0 -70 -69 -46 -89 9 -8 12 -21 7 -44 -4
-18 -6 -36 -5 -42 5 -26 17 -55 24 -55 4 0 12 -11 18 -24 8 -18 7 -27 -5 -39
-13 -13 -14 -19 -4 -31 10 -12 9 -17 -7 -25 -10 -5 -27 -31 -36 -56 -10 -25
-22 -45 -27 -45 -5 0 -9 -6 -9 -12 1 -14 79 71 80 85 0 10 30 42 30 33 0 -10
-51 -89 -74 -115 -71 -79 -182 -103 -480 -103 -164 0 -350 22 -491 59 -112 29
-125 34 -176 74 -20 16 -38 26 -41 23 -10 -9 -24 22 -51 106 -37 121 -49 197
-49 336 -1 107 2 128 22 169 24 50 53 82 85 95 22 9 45 12 45 6z m-3045 -21
c16 -4 32 -9 35 -12 8 -9 -131 8 -154 18 -22 10 60 6 119 -6z m4815 -2 c-47
-21 -140 -43 -140 -33 0 12 109 48 145 49 l30 0 -35 -16z m-4688 -16 c11 -1
14 -5 9 -10 -12 -12 -84 1 -76 13 3 5 15 6 28 3 12 -3 30 -6 39 -6z m73 -17
c3 -5 2 -10 -4 -10 -5 0 -13 5 -16 10 -3 6 -2 10 4 10 5 0 13 -4 16 -10z
m3485 -30 c0 -5 -10 -10 -22 -10 -19 0 -20 2 -8 10 19 13 30 13 30 0z m20 -61
c0 -11 -4 -17 -10 -14 -5 3 -10 15 -10 26 0 11 5 17 10 14 6 -3 10 -15 10 -26z
m-960 -49 c0 -5 -4 -10 -10 -10 -5 0 -10 5 -10 10 0 6 5 10 10 10 6 0 10 -4
10 -10z m580 -261 c0 -5 -4 -9 -10 -9 -5 0 -10 7 -10 16 0 8 5 12 10 9 6 -3
10 -10 10 -16z m-158 -14 c0 -5 -5 -11 -11 -13 -6 -2 -11 4 -11 13 0 9 5 15
11 13 6 -2 11 -8 11 -13z m1111 -140 c-3 -9 -8 -14 -10 -11 -3 3 -2 9 2 15 9
16 15 13 8 -4z m-819 -315 c32 -5 137 -10 233 -11 122 -1 171 -5 164 -12 -6
-6 -21 -12 -33 -14 -13 -2 -27 -4 -33 -5 -5 0 -25 2 -44 7 -27 6 -32 4 -25 -6
6 -12 5 -12 -8 -1 -11 9 -18 10 -23 2 -8 -14 -52 -13 -57 2 -3 7 -37 13 -87
15 -62 3 -81 1 -75 -8 5 -8 -1 -10 -20 -7 -25 5 -26 4 -12 -10 11 -11 19 -12
28 -5 19 15 68 22 75 10 3 -6 1 -7 -5 -3 -8 5 -12 0 -12 -13 0 -11 -4 -23 -10
-26 -5 -3 -10 -1 -10 4 0 6 -11 11 -25 11 -14 0 -25 -5 -25 -10 0 -14 -42 8
-53 26 -4 8 -18 14 -30 15 -21 0 -21 1 3 12 35 16 36 17 20 27 -19 12 -9 12
64 0z m473 -16 c-3 -3 -12 -4 -19 -1 -8 3 -5 6 6 6 11 1 17 -2 13 -5z m-314
-31 c-7 -2 -19 -2 -25 0 -7 3 -2 5 12 5 14 0 19 -2 13 -5z m148 -11 c-7 -2
-18 1 -23 6 -8 8 -4 9 13 5 13 -4 18 -8 10 -11z m-91 -18 c0 -14 -3 -14 -15
-4 -8 7 -15 14 -15 16 0 2 7 4 15 4 8 0 15 -7 15 -16z m-66 -9 c3 -9 0 -15 -9
-15 -8 0 -15 7 -15 15 0 8 4 15 9 15 5 0 11 -7 15 -15z m99 -15 c-3 -12 -8
-19 -11 -16 -5 6 5 36 12 36 2 0 2 -9 -1 -20z m-173 -45 c0 -9 9 -15 25 -15
14 0 25 5 25 11 0 8 4 8 15 -1 15 -13 231 -16 309 -5 29 5 46 3 51 -5 5 -8 10
-8 21 1 11 9 14 7 14 -15 0 -18 -5 -26 -17 -26 -13 0 -14 -3 -5 -12 17 -17 15
-28 -6 -28 -17 0 -24 -9 -55 -77 -6 -13 -14 -23 -19 -23 -4 0 -8 -5 -8 -12 0
-6 -6 -19 -14 -27 -12 -15 -30 -86 -42 -176 -9 -61 -6 -78 12 -92 10 -7 12
-13 6 -13 -7 0 -12 -4 -12 -8 0 -11 57 -31 114 -38 38 -6 47 -10 43 -24 -6
-22 49 -48 66 -31 8 8 17 4 34 -15 13 -15 23 -31 23 -36 0 -12 -37 9 -43 24
-5 12 -11 -17 -8 -36 1 -4 -1 -17 -5 -28 -5 -17 -8 -18 -16 -7 -7 11 -11 11
-15 2 -2 -7 -13 -13 -23 -13 -9 0 -22 -6 -28 -13 -6 -7 -33 -14 -59 -16 -56
-3 -63 -6 -63 -32 0 -11 -4 -17 -10 -14 -5 3 -12 -6 -16 -20 -3 -14 -10 -25
-15 -25 -4 0 -16 -13 -26 -30 -9 -16 -21 -30 -26 -30 -18 0 -34 26 -30 51 4
31 -19 53 -47 46 -15 -4 -20 0 -20 13 0 11 -8 24 -17 29 -16 9 -16 12 -3 22
11 8 3 9 -35 6 l-50 -5 24 19 c20 16 22 23 13 42 -7 15 -11 17 -11 6 -1 -9
-13 -21 -27 -28 -16 -7 -24 -17 -20 -26 3 -8 1 -17 -4 -20 -6 -4 -10 -15 -10
-26 0 -10 -4 -19 -10 -19 -5 0 -10 -7 -10 -15 0 -9 -9 -15 -22 -15 -39 0 -68
12 -68 26 0 8 -4 22 -9 32 -5 9 -12 25 -15 35 -3 9 -17 22 -31 27 -19 7 -25
15 -21 28 3 10 8 44 10 76 l5 58 -20 -23 c-10 -12 -21 -20 -22 -18 -9 11 -37
78 -37 88 0 6 -6 11 -14 11 -11 0 -13 7 -6 29 9 33 3 64 -31 159 -18 47 -20
65 -11 71 9 5 9 15 -1 42 -6 18 -16 37 -21 40 -14 11 27 59 56 65 15 4 33 13
39 20 6 8 25 14 42 14 16 0 45 9 63 21 20 12 34 16 34 9 0 -7 17 -10 48 -8 38
2 47 6 46 21 -1 9 2 17 7 17 5 0 9 -7 9 -15z m-4372 -243 c2 -7 -7 -12 -22
-12 -16 0 -26 6 -26 15 0 18 42 15 48 -3z m612 -23 c0 -6 -4 -7 -10 -4 -5 3
-10 11 -10 16 0 6 5 7 10 4 6 -3 10 -11 10 -16z m114 -4 c15 -6 17 -5 11 5 -6
9 -4 11 4 5 7 -4 38 -9 69 -11 31 -3 59 -9 63 -15 4 -7 19 -8 38 -4 22 5 31 3
31 -7 0 -10 3 -9 11 2 9 13 10 12 5 -2 -7 -22 13 -35 25 -17 7 11 9 10 9 -3 0
-23 -45 -25 -54 -3 -3 10 -19 15 -45 15 -33 0 -40 -4 -45 -25 -10 -39 -25 -29
-16 10 7 32 6 35 -14 35 -17 0 -18 -2 -6 -10 11 -8 -2 -9 -43 -5 -55 4 -58 3
-52 -15 4 -11 2 -20 -4 -20 -6 0 -11 7 -11 16 0 9 -5 12 -12 8 -8 -5 -7 0 2
11 14 17 13 18 -8 13 -13 -4 -25 -1 -30 6 -4 7 -14 16 -22 19 -8 4 5 5 30 3
25 -2 54 -7 64 -11z m356 -51 c0 -8 -4 -12 -10 -9 -5 3 -10 10 -10 16 0 5 5 9
10 9 6 0 10 -7 10 -16z m-316 -3 c3 -5 -1 -11 -9 -15 -9 -3 -15 0 -15 9 0 16
16 20 24 6z m606 -5 c0 -3 -4 -8 -10 -11 -5 -3 -10 -1 -10 4 0 6 5 11 10 11 6
0 10 -2 10 -4z m-450 -30 c0 -2 -9 -6 -20 -9 -11 -3 -20 -1 -20 4 0 5 9 9 20
9 11 0 20 -2 20 -4z m445 -6 c-3 -5 -11 -10 -16 -10 -6 0 -7 5 -4 10 3 6 11
10 16 10 6 0 7 -4 4 -10z m-391 -9 c3 -5 -1 -11 -9 -15 -9 -3 -15 0 -15 9 0
16 16 20 24 6z m570 1 c2 -4 -4 -9 -15 -9 -10 -1 -19 2 -19 8 0 11 27 12 34 1z
m46 -6 c0 -2 -7 -6 -15 -10 -8 -3 -15 -1 -15 4 0 6 7 10 15 10 8 0 15 -2 15
-4z m90 -14 c15 -12 20 -23 15 -32 -7 -11 -10 -10 -19 2 -11 15 -46 32 -58 30
-5 -1 -8 3 -8 8 0 17 46 11 70 -8z m120 -13 c0 -5 -10 -9 -21 -9 -18 0 -19 2
-9 15 12 15 30 12 30 -6z m60 -9 c0 -5 -5 -10 -11 -10 -5 0 -7 5 -4 10 3 6 8
10 11 10 2 0 4 -4 4 -10z m155 -10 c4 -6 -5 -10 -20 -10 -15 0 -24 4 -20 10 3
6 12 10 20 10 8 0 17 -4 20 -10z m-210 -30 c3 -5 2 -10 -4 -10 -5 0 -13 5 -16
10 -3 6 -2 10 4 10 5 0 13 -4 16 -10z m-1109 -22 c11 -17 -5 -20 -35 -7 -17 8
-31 17 -31 20 0 9 60 -2 66 -13z m1209 13 c7 -12 -31 -25 -45 -16 -6 4 -8 11
-5 16 8 12 42 12 50 0z m92 -3 c0 -7 4 -21 8 -30 4 -11 3 -18 -4 -18 -6 0 -11
7 -11 15 0 11 -7 13 -29 9 -16 -4 -32 -1 -35 5 -5 7 2 11 18 11 14 0 28 5 31
10 9 14 22 12 22 -2z m220 6 c-3 -3 -12 -4 -19 -1 -8 3 -5 6 6 6 11 1 17 -2
13 -5z m-1818 -82 c7 -2 17 2 22 9 6 11 9 9 9 -7 0 -23 -17 -34 -51 -34 -20 0
-21 0 -21 45 -1 62 4 71 16 31 7 -22 18 -42 25 -44z m1681 37 c0 -4 -11 -6
-25 -5 -16 0 -25 7 -25 18 0 14 4 14 25 5 14 -7 25 -15 25 -18z m-1109 2 c0
-3 2 -16 5 -28 4 -24 -10 -31 -22 -12 -9 16 -26 -4 -19 -23 6 -16 60 -22 96
-12 27 8 31 42 5 47 -11 2 -4 5 18 6 33 1 37 -1 26 -14 -10 -12 -9 -16 4 -21
9 -3 16 -11 16 -16 0 -5 9 -22 20 -36 18 -23 19 -27 5 -34 -19 -11 -10 -28 16
-28 10 0 19 -7 19 -15 0 -16 17 -19 44 -9 18 7 22 30 6 36 -15 5 -17 74 -2 70
8 -1 11 2 8 7 -3 5 1 14 9 21 8 7 15 19 15 26 0 8 6 14 13 14 18 0 15 -39 -4
-51 -10 -6 -5 -9 19 -9 35 0 37 2 21 32 -10 18 -9 20 5 15 10 -4 16 -1 16 8 0
8 9 15 20 15 13 0 20 -7 20 -19 0 -20 27 -48 37 -38 3 4 0 14 -7 23 -12 14
-10 15 26 8 21 -4 46 -7 54 -7 8 0 19 -5 23 -11 6 -8 10 -7 14 2 6 14 40 16
45 2 2 -6 33 -11 70 -12 38 -1 73 -5 80 -9 6 -4 21 -3 31 3 14 7 22 7 27 -2 5
-8 19 -11 35 -8 19 4 25 2 21 -8 -3 -8 1 -14 10 -14 8 0 12 5 9 11 -5 7 7 9
36 5 24 -3 70 -8 102 -11 32 -4 70 -13 85 -21 15 -7 28 -10 30 -5 1 4 21 3 42
-3 28 -7 40 -16 40 -28 0 -10 7 -18 16 -18 11 0 15 6 11 20 -3 11 -1 17 4 14
6 -3 16 -1 23 5 7 6 26 10 41 9 27 -3 27 -3 22 -59 -4 -30 -10 -64 -13 -74 -5
-13 -4 -16 4 -11 7 4 12 2 12 -3 0 -6 -4 -11 -10 -11 -10 0 -11 -4 -10 -157 1
-58 -3 -93 -10 -93 -5 0 -10 -7 -10 -16 0 -8 -3 -13 -7 -11 -5 3 -8 -6 -8 -19
0 -28 11 -32 18 -6 3 9 3 -3 0 -28 -3 -25 -10 -53 -14 -62 -5 -9 -7 -49 -4
-88 4 -63 3 -71 -10 -60 -8 7 -13 16 -10 20 2 4 -12 6 -33 4 -60 -4 -84 5 -76
29 6 19 5 19 -8 6 -18 -17 -19 -79 -2 -72 7 3 10 -5 7 -22 -4 -20 -2 -24 11
-19 11 4 22 -1 31 -12 12 -16 17 -17 35 -6 20 12 21 11 15 -7 -5 -16 -2 -19
14 -16 14 2 18 -1 14 -11 -3 -8 -13 -14 -22 -14 -14 -1 -14 -2 2 -11 14 -8 17
-21 15 -60 -2 -27 -4 -49 -5 -49 -1 0 -11 10 -23 22 -22 24 -26 38 -10 38 6 0
10 -7 10 -17 0 -23 13 -8 17 20 2 17 1 19 -7 7 -7 -11 -10 -12 -10 -2 0 9 -10
6 -31 -9 -29 -21 -32 -21 -41 -5 -9 17 -11 17 -29 0 -10 -9 -19 -22 -19 -29 0
-6 -13 -12 -29 -12 -43 0 -91 -22 -84 -39 7 -18 -2 -18 -30 1 -13 8 -36 14
-52 13 -17 -1 -40 1 -53 6 -19 6 -24 4 -29 -15 l-6 -23 -9 23 c-6 17 -14 22
-28 18 -11 -3 -20 -1 -20 4 0 5 9 9 20 9 13 0 20 7 20 20 0 13 7 20 20 20 23
0 26 -10 8 -28 -9 -9 -2 -12 35 -12 26 0 47 5 47 10 0 6 -8 10 -18 10 -11 0
-29 9 -42 20 -30 26 -63 26 -75 -2 -13 -29 -35 -35 -35 -9 0 11 -9 25 -21 32
-18 9 -20 8 -15 -9 4 -11 3 -23 -2 -25 -14 -9 -31 7 -29 28 2 15 -5 21 -25 23
-16 2 -28 -1 -28 -6 0 -16 13 -22 27 -11 10 9 13 7 13 -9 0 -11 -6 -22 -14
-25 -15 -6 -56 39 -56 63 -1 12 -4 11 -16 -5 -17 -23 -15 -50 6 -50 8 0 16 -8
18 -17 2 -13 -3 -18 -17 -18 -12 0 -21 6 -21 13 0 6 -5 19 -10 27 -8 13 -11
12 -23 -4 -10 -13 -16 -15 -21 -8 -4 7 -16 12 -27 12 -13 0 -24 10 -30 28 -8
25 -14 28 -53 27 -25 0 -48 -3 -52 -7 -14 -15 -24 -8 -21 15 1 12 7 25 12 29
6 5 4 8 -4 8 -8 0 -23 -7 -33 -17 -11 -9 -18 -11 -18 -5 0 18 -12 14 -44 -13
-31 -27 -36 -28 -60 -19 -13 5 -14 9 -5 20 17 20 10 24 -50 26 -29 1 -55 6
-57 10 -10 15 -22 8 -28 -17 -8 -31 -23 -33 -28 -3 -3 19 -10 21 -74 23 -38 1
-80 7 -92 14 -12 7 -39 11 -60 9 -32 -3 -37 0 -40 20 -3 17 2 22 20 23 l23 0
-23 10 c-24 9 -22 29 4 29 8 0 14 5 14 10 0 6 9 10 19 10 11 0 23 5 26 10 10
15 35 12 35 -5 0 -8 7 -15 15 -15 8 0 15 6 15 14 0 9 8 12 25 8 14 -2 25 0 25
7 0 5 7 8 15 5 8 -4 15 -12 15 -20 0 -7 9 -18 19 -24 26 -13 31 -13 31 4 0 8
7 16 15 20 11 4 15 -2 15 -20 0 -16 5 -24 13 -21 6 2 11 14 9 25 -2 15 2 22
12 22 10 0 16 9 16 23 0 12 4 29 9 36 8 12 11 9 17 -13 4 -17 2 -31 -4 -35 -5
-3 -8 -18 -5 -32 4 -20 15 -29 53 -41 43 -14 47 -14 46 1 -1 12 9 16 42 16 24
0 46 -3 49 -7 2 -5 -7 -8 -21 -8 -14 0 -26 -5 -26 -11 0 -5 8 -9 18 -7 9 1 23
-1 30 -6 8 -5 18 -3 25 4 9 10 9 14 -2 18 -9 3 -4 9 15 17 23 9 33 9 48 -1 14
-9 25 -10 45 -1 46 19 46 26 -1 25 -67 -1 -148 28 -148 54 0 12 -8 27 -17 35
-13 10 -15 16 -5 19 15 7 16 24 1 24 -5 0 -15 -13 -20 -30 -6 -16 -14 -30 -17
-30 -25 1 -52 15 -52 26 0 8 -7 14 -15 14 -11 0 -15 11 -15 40 0 33 -3 40 -20
40 -12 0 -20 7 -20 18 0 37 -17 42 -18 5 -1 -37 -7 -83 -12 -93 -1 -3 -5 8 -9
25 -4 21 -12 30 -26 30 -11 0 -21 6 -21 13 -1 6 -2 16 -3 22 -2 20 -30 -3 -28
-23 2 -17 -4 -23 -25 -25 -28 -3 -32 3 -28 43 1 16 -1 18 -11 8 -26 -26 -42
-15 -35 22 5 25 3 35 -6 37 -7 0 -17 2 -23 2 -32 4 -50 46 -20 46 8 0 15 -8
15 -17 0 -14 2 -15 13 -4 10 10 8 15 -6 25 -23 18 -12 44 21 48 39 4 27 23
-13 22 -33 -1 -35 0 -35 32 0 19 -4 34 -10 34 -5 0 -10 -9 -10 -20 0 -13 -7
-20 -20 -20 -21 0 -27 15 -10 25 6 3 10 18 10 32 0 18 4 24 15 20 8 -4 17 -2
20 3 4 6 -6 10 -21 10 -21 0 -25 4 -21 20 3 13 -1 21 -14 25 -10 4 -19 11 -19
16 0 15 33 24 38 11 5 -16 23 -15 21 1 -1 6 -1 23 0 37 1 20 3 22 11 10 8 -12
13 -13 30 -2 11 7 31 10 45 6 15 -4 25 -2 25 5 0 6 -11 11 -25 11 -14 0 -25 5
-25 10 0 21 -20 9 -21 -12 l-2 -23 -4 23 c-2 12 -11 22 -19 22 -21 0 -17 21 6
27 22 6 27 22 8 24 -7 1 3 5 22 10 39 9 67 4 73 -14 2 -7 3 1 1 16 -2 17 0 26
6 22 6 -3 10 -1 10 4 0 6 -4 11 -10 11 -5 0 -10 5 -10 11 0 5 4 8 9 5 5 -3 11
0 14 8 6 14 46 11 48 -3z m1158 -13 c-12 -5 -27 -7 -33 -4 -6 2 -3 5 7 5 9 1
17 8 17 17 0 14 2 14 16 3 14 -12 13 -14 -7 -21z m-1236 2 c3 -12 0 -20 -8
-20 -14 0 -27 25 -18 34 11 11 21 6 26 -14z m237 -15 c-7 -8 -16 -12 -21 -9
-13 8 -1 24 18 24 13 0 13 -3 3 -15z m3610 1 c0 -11 -19 -15 -25 -6 -3 5 1 10
9 10 9 0 16 -2 16 -4z m-4540 -36 c0 -5 -5 -10 -11 -10 -5 0 -7 5 -4 10 3 6 8
10 11 10 2 0 4 -4 4 -10z m300 0 c0 -5 -7 -7 -15 -4 -8 4 -15 8 -15 10 0 2 7
4 15 4 8 0 15 -4 15 -10z m222 -36 c-7 -14 -18 -24 -25 -21 -6 2 -17 -2 -24
-9 -7 -7 -22 -10 -34 -7 -18 5 -20 3 -14 -17 5 -16 3 -21 -6 -18 -19 6 -19 48
1 48 9 0 22 11 28 25 7 14 17 22 25 19 8 -3 20 2 27 11 20 25 36 2 22 -31z
m4168 17 c0 -12 -20 -25 -27 -18 -7 7 6 27 18 27 5 0 9 -4 9 -9z m-4421 -10
c9 -6 3 -10 -20 -14 -40 -6 -61 3 -33 14 26 10 37 10 53 0z m-331 -13 c-2 -4
7 -15 20 -23 12 -9 22 -21 22 -26 0 -13 -41 9 -57 30 -17 22 -16 33 3 29 8 -2
14 -6 12 -10z m242 -8 c0 -5 -5 -10 -11 -10 -5 0 -7 5 -4 10 3 6 8 10 11 10 2
0 4 -4 4 -10z m784 4 c16 -6 23 -34 8 -34 -10 0 -32 22 -32 32 0 10 3 10 24 2z
m983 0 c-3 -3 -12 -4 -19 -1 -8 3 -5 6 6 6 11 1 17 -2 13 -5z m2013 -4 c0 -5
-5 -10 -11 -10 -5 0 -7 5 -4 10 3 6 8 10 11 10 2 0 4 -4 4 -10z m-3832 -26 c3
-18 2 -18 -9 0 -9 15 -13 16 -20 5 -4 -7 -11 -10 -16 -6 -9 9 17 28 32 24 6
-2 11 -12 13 -23z m-108 -6 c0 -16 -3 -19 -11 -11 -6 6 -8 16 -5 22 11 17 16
13 16 -11z m160 -8 c6 9 10 10 10 3 0 -6 -4 -14 -9 -17 -15 -10 -41 5 -41 23
1 13 3 13 16 -4 13 -17 16 -18 24 -5z m370 -3 c0 -32 -39 -53 -69 -38 -25 14
-28 31 -3 31 9 0 26 7 36 15 27 21 36 19 36 -8z m-320 -17 c0 -5 -5 -10 -11
-10 -5 0 -7 5 -4 10 3 6 8 10 11 10 2 0 4 -4 4 -10z m-194 -23 c8 -8 -1 -9
-63 -12 -35 -1 -39 1 -25 11 18 13 76 14 88 1z m99 -15 c-2 -2 -14 0 -27 4
-22 7 -22 7 -3 14 17 6 41 -8 30 -18z m325 9 c0 -5 -9 -7 -20 -4 -11 3 -20 7
-20 9 0 2 9 4 20 4 11 0 20 -4 20 -9z m10440 -21 c0 -5 -4 -10 -10 -10 -5 0
-10 5 -10 10 0 6 5 10 10 10 6 0 10 -4 10 -10z m-10893 -16 c-3 -3 -12 -4 -19
-1 -8 3 -5 6 6 6 11 1 17 -2 13 -5z m213 -43 c0 -5 3 -16 6 -25 3 -9 2 -16 -4
-16 -5 0 -12 11 -14 25 -3 14 -1 25 3 25 5 0 9 -4 9 -9z m80 -31 c0 -5 -5 -10
-11 -10 -5 0 -7 5 -4 10 3 6 8 10 11 10 2 0 4 -4 4 -10z m-170 -20 c0 -5 -4
-10 -10 -10 -5 0 -10 5 -10 10 0 6 5 10 10 10 6 0 10 -4 10 -10z m90 -30 c0
-5 -2 -10 -4 -10 -3 0 -8 5 -11 10 -3 6 -1 10 4 10 6 0 11 -4 11 -10z m243
-21 c-8 -8 -13 -8 -17 0 -4 6 -2 11 4 11 6 0 8 6 4 13 -6 10 -4 10 7 0 9 -10
10 -16 2 -24z m-203 -39 c0 -5 -4 -10 -10 -10 -5 0 -10 5 -10 10 0 6 5 10 10
10 6 0 10 -4 10 -10z m170 -10 c0 -5 -4 -10 -9 -10 -6 0 -13 5 -16 10 -3 6 1
10 9 10 9 0 16 -4 16 -10z m170 0 c0 -5 -15 -10 -32 -9 -28 0 -30 2 -13 9 28
12 45 12 45 0z m-396 -36 c16 -6 23 -34 9 -34 -11 1 -43 26 -43 34 0 8 14 8
34 0z m186 -20 c0 -8 -4 -12 -10 -9 -5 3 -10 13 -10 21 0 8 5 12 10 9 6 -3 10
-13 10 -21z m100 16 c0 -15 -26 -23 -41 -14 -9 5 -7 10 7 15 27 11 34 10 34
-1z m57 -12 c-3 -8 -6 -5 -6 6 -1 11 2 17 5 13 3 -3 4 -12 1 -19z m33 -38 c0
-5 9 -10 20 -10 11 0 20 -5 20 -11 0 -5 -4 -7 -10 -4 -5 3 -19 1 -30 -5 -29
-15 -39 -9 -29 18 8 22 29 31 29 12z m10240 -19 c0 -18 -18 -21 -30 -6 -10 13
-9 15 9 15 11 0 21 -4 21 -9z m-10224 -98 c-11 -11 -17 4 -9 23 7 18 8 18 11
1 2 -10 1 -21 -2 -24z m44 13 c0 -3 -4 -8 -10 -11 -5 -3 -10 -1 -10 4 0 6 5
11 10 11 6 0 10 -2 10 -4z m250 -26 c0 -11 -4 -20 -9 -20 -11 0 -22 26 -14 34
12 12 23 5 23 -14z m-180 0 c0 -5 -4 -10 -9 -10 -6 0 -13 5 -16 10 -3 6 1 10
9 10 9 0 16 -4 16 -10z m95 1 c3 -5 1 -12 -5 -16 -5 -3 -10 1 -10 9 0 18 6 21
15 7z m3652 -43 c-6 -21 11 -25 19 -4 3 9 13 12 22 9 22 -8 72 -60 64 -67 -3
-3 0 -6 7 -6 9 0 11 -6 6 -17 -10 -26 -18 -83 -17 -123 1 -19 1 -54 1 -77 0
-24 5 -52 11 -64 9 -16 8 -26 -5 -45 l-16 -25 -42 33 c-23 18 -46 39 -52 48
-18 27 -53 184 -44 196 5 6 6 13 3 16 -3 4 0 24 7 47 9 32 9 43 0 55 -7 8 -10
20 -6 26 3 5 1 10 -6 10 -7 0 -4 6 7 14 23 18 48 2 41 -26z m-3817 13 c0 -6
-4 -13 -10 -16 -5 -3 -10 -2 -10 4 0 5 -8 12 -17 14 -11 3 -7 5 10 6 15 0 27
-3 27 -8z m118 -30 c3 -18 0 -22 -12 -17 -9 3 -23 9 -31 12 -10 4 -15 0 -15
-12 0 -16 -1 -16 -19 2 -22 22 -17 37 9 29 10 -3 21 -1 25 5 12 19 40 6 43
-19z m10067 0 c7 -12 -12 -24 -25 -16 -11 7 -4 25 10 25 5 0 11 -4 15 -9z
m-9797 -37 c2 -14 -3 -20 -18 -20 -13 0 -19 5 -15 14 3 7 5 18 5 24 0 18 25 2
28 -18z m-1365 3 c3 -8 -1 -14 -9 -14 -8 0 -14 6 -14 14 0 7 4 13 9 13 5 0 11
-6 14 -13z m207 -3 c0 -2 -7 -4 -15 -4 -8 0 -15 4 -15 10 0 5 7 7 15 4 8 -4
15 -8 15 -10z m385 0 c13 -5 14 -8 3 -15 -22 -14 -48 -11 -42 6 7 17 14 18 39
9z m175 -4 c0 -5 -4 -10 -10 -10 -5 0 -10 5 -10 10 0 6 5 10 10 10 6 0 10 -4
10 -10z m-500 -11 c0 -7 14 -10 35 -7 28 3 35 1 35 -13 0 -10 3 -24 6 -33 3
-9 1 -16 -5 -16 -6 0 -11 9 -11 20 0 23 -15 27 -27 6 -11 -19 -63 -27 -63 -10
0 8 7 14 16 14 13 0 14 3 4 15 -11 13 -14 13 -27 0 -19 -20 -33 -19 -33 1 0
10 5 14 15 10 9 -3 18 1 21 9 7 17 34 20 34 4z m210 -35 c0 -15 -6 -24 -15
-24 -8 0 -15 5 -15 10 0 6 -7 10 -15 10 -8 0 -15 2 -15 4 0 2 -3 11 -6 19 -4
11 2 17 18 19 30 5 48 -9 48 -38z m4685 36 c3 -5 1 -10 -4 -10 -6 0 -11 5 -11
10 0 6 2 10 4 10 3 0 8 -4 11 -10z m-4775 -15 c0 -8 -4 -15 -10 -15 -5 0 -10
7 -10 15 0 8 5 15 10 15 6 0 10 -7 10 -15z m160 -55 c0 -14 -7 -13 -35 6 -27
18 -31 34 -13 52 9 9 16 5 30 -18 10 -17 18 -35 18 -40z m151 34 c7 -28 7 -28
14 -6 9 26 23 30 21 5 -1 -14 7 -18 33 -18 20 0 36 -6 39 -14 2 -8 0 -11 -6
-8 -5 4 -15 0 -22 -8 -9 -11 -30 -14 -81 -13 -38 2 -69 6 -69 10 0 4 -10 8
-22 10 -17 2 -24 11 -26 31 -2 15 1 27 7 27 6 0 11 -7 11 -15 0 -8 5 -15 11
-15 5 0 7 5 4 10 -3 6 2 13 12 16 10 3 25 9 33 14 23 13 34 6 41 -26z m714 6
c-3 -5 -11 -10 -16 -10 -6 0 -7 5 -4 10 3 6 11 10 16 10 6 0 7 -4 4 -10z
m3759 -10 c4 -5 3 -16 -3 -27 -10 -17 -10 -17 -11 0 0 10 -8 17 -20 17 -11 0
-20 7 -20 16 0 11 6 14 23 9 12 -4 26 -11 31 -15z m-4784 -20 c0 -5 -2 -10 -4
-10 -3 0 -8 5 -11 10 -3 6 -1 10 4 10 6 0 11 -4 11 -10z m1909 -25 c18 -5 22
-4 16 6 -6 11 -5 11 5 2 7 -6 19 -9 26 -6 10 3 14 -3 14 -20 0 -31 -16 -44
-24 -20 -3 11 -17 19 -32 20 -14 0 -34 9 -43 18 -13 15 -13 17 -1 13 8 -3 26
-9 39 -13z m8811 -15 c8 -5 11 -12 8 -16 -10 -9 -38 3 -38 16 0 12 10 13 30 0z
m-9595 -130 c3 -5 -1 -10 -9 -10 -9 0 -16 5 -16 10 0 6 4 10 9 10 6 0 13 -4
16 -10z m-181 -10 c-7 -7 -19 -7 -35 -1 -23 9 -22 10 11 10 23 1 31 -2 24 -9z
m986 -70 c0 -5 -4 -10 -10 -10 -5 0 -10 5 -10 10 0 6 5 10 10 10 6 0 10 -4 10
-10z m-100 -18 c0 -4 -9 -13 -19 -19 -16 -10 -18 -9 -14 8 5 18 33 28 33 11z
m8834 -107 c-4 -8 -8 -15 -10 -15 -2 0 -4 7 -4 15 0 8 4 15 10 15 5 0 7 -7 4
-15z m-4 -105 c0 -5 -5 -10 -11 -10 -5 0 -7 5 -4 10 3 6 8 10 11 10 2 0 4 -4
4 -10z m1125 -126 c17 -13 18 -16 5 -24 -24 -16 -76 -11 -91 7 -12 15 -12 16
3 10 9 -3 22 1 28 9 16 18 30 17 55 -2z m-1115 -83 c0 -5 -7 -11 -14 -14 -10
-4 -13 -1 -9 9 6 15 23 19 23 5z m34 -237 c3 -9 6 -26 6 -39 0 -18 -4 -22 -20
-18 -14 4 -20 14 -20 32 0 41 22 57 34 25z m-10041 -64 c-3 -11 -9 -17 -15
-14 -5 3 -4 12 3 20 16 19 18 18 12 -6z m1142 3 c4 9 15 17 24 16 10 0 11 -2
4 -6 -7 -2 -13 -11 -13 -18 0 -7 -9 -15 -20 -18 -14 -4 -20 0 -20 11 0 15 -2
15 -10 2 -8 -13 -10 -13 -10 2 0 22 23 29 31 9 6 -14 8 -14 14 2z m-36 -75 c1
-5 -3 -8 -9 -8 -5 0 -10 12 -9 28 0 24 1 25 9 7 5 -11 9 -23 9 -27z m38 10
c-3 -8 -6 -5 -6 6 -1 11 2 17 5 13 3 -3 4 -12 1 -19z m-1732 -8 c3 -5 -1 -10
-10 -10 -9 0 -13 5 -10 10 3 6 8 10 10 10 2 0 7 -4 10 -10z m583 -35 c-3 -3
-9 2 -12 12 -6 14 -5 15 5 6 7 -7 10 -15 7 -18z m1118 -25 c8 0 14 -4 14 -9 0
-5 -8 -8 -17 -7 -12 2 -19 13 -20 32 -1 20 0 22 4 7 2 -13 11 -23 19 -23z m-2
-60 c-6 -6 -15 -6 -24 0 -13 9 -13 11 0 20 18 11 39 -5 24 -20z m8356 -2 c10
-13 16 -26 14 -30 -6 -10 -44 24 -44 39 0 19 9 16 30 -9z m537 -40 c-3 -8 -6
-5 -6 6 -1 11 2 17 5 13 3 -3 4 -12 1 -19z m-10610 -40 c-3 -8 -6 -5 -6 6 -1
11 2 17 5 13 3 -3 4 -12 1 -19z m828 2 c3 -5 2 -10 -4 -10 -5 0 -13 5 -16 10
-3 6 -2 10 4 10 5 0 13 -4 16 -10z m262 -16 c-3 -3 -12 -4 -19 -1 -8 3 -5 6 6
6 11 1 17 -2 13 -5z m67 -9 c-25 -19 -38 -19 -22 0 7 8 19 14 27 15 11 0 9 -4
-5 -15z m-22 -75 c-6 -43 -12 -37 -12 13 0 25 4 37 8 29 5 -7 7 -26 4 -42z
m536 -151 c-14 -10 2 -38 19 -32 9 4 13 14 10 29 -2 13 0 21 5 18 5 -3 7 -26
5 -50 -2 -24 0 -44 5 -44 4 0 8 -5 8 -10 0 -6 -11 -8 -25 -4 -16 4 -25 2 -25
-6 0 -6 -4 -9 -9 -5 -14 8 -25 91 -15 107 5 7 7 22 6 33 -2 16 0 15 11 -5 7
-14 9 -28 5 -31z"/>
<path d="M5240 9790 c0 -5 5 -10 11 -10 5 0 7 5 4 10 -3 6 -8 10 -11 10 -2 0
-4 -4 -4 -10z"/>
<path d="M4653 9523 c-15 -6 -17 -33 -3 -33 6 0 10 -9 10 -21 0 -14 5 -19 18
-17 9 2 17 10 17 18 0 8 4 18 8 21 5 3 1 13 -8 23 -17 17 -22 18 -42 9z"/>
<path d="M4640 9434 c0 -8 5 -12 10 -9 6 4 8 11 5 16 -9 14 -15 11 -15 -7z"/>
<path d="M4483 9375 c0 -22 2 -30 4 -17 2 12 2 30 0 40 -3 9 -5 -1 -4 -23z"/>
<path d="M4722 9355 c0 -16 2 -22 5 -12 2 9 2 23 0 30 -3 6 -5 -1 -5 -18z"/>
<path d="M4625 9260 c3 -5 11 -10 16 -10 6 0 7 5 4 10 -3 6 -11 10 -16 10 -6
0 -7 -4 -4 -10z"/>
<path d="M4605 9240 c3 -5 8 -10 11 -10 2 0 4 5 4 10 0 6 -5 10 -11 10 -5 0
-7 -4 -4 -10z"/>
<path d="M4530 9005 c0 -27 14 -32 34 -12 17 17 9 37 -15 37 -14 0 -19 -7 -19
-25z"/>
<path d="M6682 8765 c-18 -13 -24 -14 -94 -16 -24 -1 -37 -4 -29 -7 9 -3 5
-12 -15 -29 -20 -17 -23 -23 -10 -19 16 6 17 4 6 -9 -10 -12 -10 -15 0 -15 10
0 10 -3 0 -15 -9 -10 -9 -15 -1 -15 6 0 11 -4 11 -10 0 -5 7 -18 16 -28 13
-16 23 -18 62 -11 26 4 58 12 72 17 17 6 38 4 74 -9 35 -12 56 -14 68 -8 10 5
18 6 18 1 0 -5 26 -9 57 -10 31 -1 81 -7 110 -13 63 -14 211 5 179 23 -11 6
-22 6 -31 -2 -8 -7 -20 -8 -27 -4 -7 5 -21 7 -32 5 -10 -1 -16 2 -12 8 8 12
-12 51 -36 69 -9 7 -15 18 -12 25 3 8 -11 19 -33 27 -41 16 -54 18 -123 23
-25 2 -52 7 -59 11 -25 16 -141 23 -159 11z m135 -21 c-3 -3 -12 -4 -19 -1 -8
3 -5 6 6 6 11 1 17 -2 13 -5z m100 -30 c-3 -3 -12 -4 -19 -1 -8 3 -5 6 6 6 11
1 17 -2 13 -5z"/>
<path d="M6520 8735 c-11 -13 -10 -14 4 -9 9 3 16 10 16 15 0 13 -6 11 -20 -6z"/>
<path d="M6640 8223 c-82 -30 -176 -90 -195 -124 -66 -116 -69 -139 -19 -139
13 0 34 -4 47 -9 26 -10 163 -26 212 -24 119 3 206 8 183 11 -16 2 -28 5 -28
7 0 1 13 16 28 33 28 30 52 90 52 130 0 18 4 20 38 15 20 -3 49 -15 65 -25 24
-17 28 -18 33 -4 10 26 -4 49 -26 43 -10 -3 -21 0 -24 7 -2 6 -5 5 -5 -4 -1
-9 -6 -5 -14 10 -16 31 -76 50 -182 57 -44 2 -88 5 -97 5 -10 -1 -18 3 -18 9
0 10 -26 11 -50 2z m175 -123 c-3 -5 -15 -10 -26 -10 -10 0 -19 5 -19 10 0 6
12 10 26 10 14 0 23 -4 19 -10z m-225 -27 c-1 -16 -1 -30 0 -33 10 -29 6 -40
-16 -40 -13 0 -24 5 -24 10 0 6 -7 10 -15 10 -8 0 -15 7 -15 15 0 8 4 15 10
15 5 0 7 6 4 13 -4 11 15 23 54 36 2 1 3 -11 2 -26z m-97 -74 c-6 -6 -19 -6
-38 1 -26 10 -31 18 -12 19 4 0 15 8 24 17 16 16 18 15 27 -5 6 -14 6 -25 -1
-32z"/>
<path d="M7067 8063 c-15 -15 9 -23 69 -23 37 0 64 4 64 10 0 6 -22 10 -54 9
-29 -1 -58 1 -63 4 -6 4 -13 4 -16 0z"/>
<path d="M7440 8020 c0 -5 -5 -10 -11 -10 -6 0 -22 -9 -36 -20 -14 -11 -30
-17 -36 -13 -6 3 -7 1 -3 -5 4 -7 1 -12 -8 -12 -9 0 -16 -8 -16 -19 0 -11 -11
-32 -24 -47 -21 -25 -26 -26 -52 -17 -48 19 -104 25 -104 12 0 -6 -6 -9 -12
-6 -7 2 -22 1 -32 -3 -18 -6 -17 -9 12 -25 18 -11 32 -25 32 -32 0 -8 12 -13
30 -13 22 0 28 -4 24 -15 -6 -16 20 -21 50 -9 23 9 20 21 -6 27 -12 4 -19 9
-16 12 3 4 16 1 28 -5 14 -7 25 -8 33 -2 7 6 32 7 62 2 42 -6 55 -4 78 12 39
28 46 46 43 117 -1 47 -6 65 -19 72 -11 7 -17 6 -17 -1z"/>
<path d="M4307 7684 c-3 -3 -23 -12 -44 -19 -37 -14 -37 -14 -8 -14 29 0 74
24 63 34 -2 3 -7 2 -11 -1z"/>
<path d="M4211 7588 c-5 -13 -6 -28 -4 -35 5 -13 33 -6 33 7 0 5 6 10 14 12
10 2 7 8 -10 21 -24 18 -24 18 -33 -5z"/>
<path d="M4190 7486 c0 -2 7 -9 15 -16 9 -7 15 -8 15 -2 0 5 -7 12 -15 16 -8
3 -15 4 -15 2z"/>
<path d="M1540 6620 c0 -5 5 -10 11 -10 5 0 7 5 4 10 -3 6 -8 10 -11 10 -2 0
-4 -4 -4 -10z"/>
<path d="M1282 6570 c0 -14 2 -19 5 -12 2 6 2 18 0 25 -3 6 -5 1 -5 -13z"/>
<path d="M1630 6567 c0 -19 16 -31 24 -18 3 5 -1 14 -9 21 -12 10 -15 10 -15
-3z"/>
<path d="M1700 6560 c0 -5 10 -10 23 -10 18 0 19 2 7 10 -19 13 -30 13 -30 0z"/>
<path d="M1800 6560 c0 -5 5 -10 10 -10 6 0 10 5 10 10 0 6 -4 10 -10 10 -5 0
-10 -4 -10 -10z"/>
<path d="M1560 6540 c0 -5 9 -10 21 -10 11 0 17 5 14 10 -3 6 -13 10 -21 10
-8 0 -14 -4 -14 -10z"/>
<path d="M1188 6516 c-6 -31 9 -45 40 -37 l23 6 -29 28 -29 28 -5 -25z"/>
<path d="M2102 6523 c2 -13 13 -18 35 -19 18 -1 30 3 27 8 -3 4 -12 8 -20 8
-8 0 -14 5 -14 10 0 6 -7 10 -16 10 -9 0 -14 -7 -12 -17z"/>
<path d="M2220 6520 c0 -5 5 -10 10 -10 6 0 10 5 10 10 0 6 -4 10 -10 10 -5 0
-10 -4 -10 -10z"/>
<path d="M2055 6510 c3 -5 10 -10 16 -10 5 0 9 5 9 10 0 6 -7 10 -16 10 -8 0
-12 -4 -9 -10z"/>
<path d="M2482 6485 c0 -16 2 -22 5 -12 2 9 2 23 0 30 -3 6 -5 -1 -5 -18z"/>
<path d="M1291 6484 c13 -16 29 -19 29 -5 0 5 -9 11 -21 14 -16 4 -18 3 -8 -9z"/>
<path d="M2285 6490 c-8 -13 4 -32 16 -25 12 8 12 35 0 35 -6 0 -13 -4 -16
-10z"/>
<path d="M2340 6490 c0 -5 5 -10 10 -10 6 0 10 5 10 10 0 6 -4 10 -10 10 -5 0
-10 -4 -10 -10z"/>
<path d="M1560 6480 c0 -5 5 -10 10 -10 6 0 10 5 10 10 0 6 -4 10 -10 10 -5 0
-10 -4 -10 -10z"/>
<path d="M1150 6450 c0 -5 4 -10 9 -10 6 0 13 5 16 10 3 6 -1 10 -9 10 -9 0
-16 -4 -16 -10z"/>
<path d="M1390 6425 c0 -10 10 -15 26 -15 22 0 25 2 14 15 -7 8 -19 15 -26 15
-8 0 -14 -7 -14 -15z"/>
<path d="M2265 6429 c-4 -6 -5 -13 -2 -16 7 -7 27 6 27 18 0 12 -17 12 -25 -2z"/>
<path d="M1000 6400 c0 -5 4 -10 9 -10 6 0 13 5 16 10 3 6 -1 10 -9 10 -9 0
-16 -4 -16 -10z"/>
<path d="M1320 6400 c0 -5 4 -10 9 -10 6 0 13 5 16 10 3 6 -1 10 -9 10 -9 0
-16 -4 -16 -10z"/>
<path d="M1375 6390 c3 -5 8 -10 11 -10 2 0 4 5 4 10 0 6 -5 10 -11 10 -5 0
-7 -4 -4 -10z"/>
<path d="M1395 6360 c3 -5 8 -10 11 -10 2 0 4 5 4 10 0 6 -5 10 -11 10 -5 0
-7 -4 -4 -10z"/>
<path d="M1608 6363 c6 -2 18 -2 25 0 6 3 1 5 -13 5 -14 0 -19 -2 -12 -5z"/>
<path d="M1046 6332 c-9 -15 12 -54 25 -47 12 8 11 18 -4 40 -10 12 -16 14
-21 7z"/>
<path d="M1343 6324 c-3 -8 -1 -20 6 -27 8 -8 11 -4 11 16 0 30 -7 35 -17 11z"/>
<path d="M1090 6290 c0 -5 5 -10 11 -10 5 0 7 5 4 10 -3 6 -8 10 -11 10 -2 0
-4 -4 -4 -10z"/>
<path d="M1355 6261 c-3 -5 -1 -12 5 -16 5 -3 10 1 10 9 0 18 -6 21 -15 7z"/>
<path d="M1390 6255 c0 -8 5 -15 10 -15 6 0 10 7 10 15 0 8 -4 15 -10 15 -5 0
-10 -7 -10 -15z"/>
<path d="M1692 6258 c7 -19 38 -22 38 -4 0 10 -9 16 -21 16 -12 0 -19 -5 -17
-12z"/>
<path d="M1122 6235 c0 -16 2 -22 5 -12 2 9 2 23 0 30 -3 6 -5 -1 -5 -18z"/>
<path d="M1241 6217 c-6 -6 -5 -15 4 -23 7 -8 16 -19 18 -26 4 -10 8 -10 16 2
7 10 6 18 -1 27 -8 10 -5 13 12 13 13 0 20 3 16 8 -11 10 -54 10 -65 -1z"/>
<path d="M1152 6208 c-14 -19 -25 -58 -15 -58 4 0 14 9 21 21 9 14 19 18 35
14 20 -6 21 -5 5 8 -10 8 -15 17 -11 20 3 4 -1 7 -9 7 -9 0 -20 -6 -26 -12z"/>
<path d="M2440 6129 c0 -5 5 -7 10 -4 6 3 10 8 10 11 0 2 -4 4 -10 4 -5 0 -10
-5 -10 -11z"/>
<path d="M1227 6107 c-3 -8 -1 -20 4 -28 11 -19 34 3 26 25 -8 20 -23 21 -30
3z"/>
<path d="M2395 6110 c-3 -5 -1 -10 4 -10 6 0 11 5 11 10 0 6 -2 10 -4 10 -3 0
-8 -4 -11 -10z"/>
<path d="M1588 6073 c-19 -5 -25 -33 -8 -33 19 0 59 23 54 31 -5 9 -17 10 -46
2z"/>
<path d="M1485 6061 c-3 -6 2 -11 14 -11 10 0 22 -6 25 -12 3 -7 5 -4 3 7 -2
22 -31 32 -42 16z"/>
<path d="M1397 6049 c7 -7 15 -10 18 -7 3 3 -2 9 -12 12 -14 6 -15 5 -6 -5z"/>
<path d="M2380 6046 c14 -7 29 -10 34 -8 11 6 -20 20 -44 21 -8 0 -4 -5 10
-13z"/>
<path d="M1360 6001 c0 -21 5 -31 15 -31 8 0 15 8 15 19 0 10 -7 24 -15 31
-13 11 -15 8 -15 -19z"/>
<path d="M1500 6000 c-8 -16 -8 -20 3 -20 8 0 17 9 20 20 3 11 1 20 -4 20 -4
0 -13 -9 -19 -20z"/>
<path d="M1560 5996 c0 -22 26 -43 38 -31 8 8 -16 55 -28 55 -5 0 -10 -11 -10
-24z"/>
<path d="M1724 5974 c-17 -7 12 -61 37 -69 30 -10 35 2 11 25 -21 20 -29 40
-16 40 4 0 13 -8 20 -17 14 -20 29 -12 21 12 -6 14 -47 19 -73 9z"/>
<path d="M1616 5956 c3 -8 -12 -20 -43 -34 -40 -17 -49 -18 -51 -6 -4 16 -18
19 -27 5 -3 -5 2 -17 11 -25 17 -18 148 -23 159 -6 3 5 12 7 19 4 10 -4 12 2
9 20 -5 26 -23 26 -23 0 0 -8 -7 -14 -15 -14 -18 0 -20 27 -2 33 9 3 9 7 -2
20 -16 20 -43 23 -35 3z"/>
<path d="M2366 5924 c-3 -8 4 -19 17 -25 12 -7 25 -17 29 -23 5 -7 8 -6 8 3 0
7 -11 24 -24 36 -19 18 -26 20 -30 9z"/>
<path d="M1811 5907 c-8 -11 -6 -16 13 -25 21 -9 24 -8 24 14 0 26 -19 32 -37
11z"/>
<path d="M2268 5903 c6 -2 18 -2 25 0 6 3 1 5 -13 5 -14 0 -19 -2 -12 -5z"/>
<path d="M2432 5890 c0 -14 2 -19 5 -12 2 6 2 18 0 25 -3 6 -5 1 -5 -13z"/>
<path d="M2352 5881 c2 -7 7 -12 11 -12 12 1 9 15 -3 20 -7 2 -11 -2 -8 -8z"/>
<path d="M1680 5865 c0 -8 7 -15 15 -15 9 0 12 6 9 15 -4 8 -10 15 -15 15 -5
0 -9 -7 -9 -15z"/>
<path d="M2220 5850 c0 -5 5 -10 10 -10 6 0 10 5 10 10 0 6 -4 10 -10 10 -5 0
-10 -4 -10 -10z"/>
<path d="M2000 5826 c0 -17 16 -30 23 -19 3 5 -1 14 -9 21 -12 10 -14 10 -14
-2z"/>
<path d="M1380 5724 c0 -14 3 -14 15 -4 8 7 15 14 15 16 0 2 -7 4 -15 4 -8 0
-15 -7 -15 -16z"/>
<path d="M2205 5670 c-3 -5 -1 -10 4 -10 6 0 11 5 11 10 0 6 -2 10 -4 10 -3 0
-8 -4 -11 -10z"/>
<path d="M2200 5639 c0 -8 -12 -10 -35 -6 -19 3 -35 2 -35 -4 0 -5 11 -9 24
-9 13 0 31 -3 39 -6 10 -3 20 3 27 15 9 17 8 21 -5 21 -8 0 -15 -5 -15 -11z"/>
<path d="M2256 5635 c-3 -8 -1 -15 4 -15 6 0 10 7 10 15 0 8 -2 15 -4 15 -2 0
-6 -7 -10 -15z"/>
<path d="M2186 4257 c3 -10 9 -15 12 -12 3 3 0 11 -7 18 -10 9 -11 8 -5 -6z"/>
<path d="M1405 12150 c-3 -5 -2 -10 4 -10 5 0 13 5 16 10 3 6 2 10 -4 10 -5 0
-13 -4 -16 -10z"/>
<path d="M1571 12120 c0 -9 4 -21 11 -28 7 -7 8 -15 1 -24 -7 -9 -4 -19 10
-32 16 -15 19 -16 14 -3 -3 8 -1 18 6 21 9 5 9 7 0 12 -7 3 -13 12 -13 20 0 8
-4 14 -9 14 -5 0 -12 8 -14 18 -4 13 -5 13 -6 2z"/>
<path d="M1570 11990 c-12 -23 2 -27 19 -6 8 9 8 16 2 20 -6 4 -15 -3 -21 -14z"/>
<path d="M1638 11963 c7 -3 16 -2 19 1 4 3 -2 6 -13 5 -11 0 -14 -3 -6 -6z"/>
<path d="M1712 11886 c7 -8 17 -12 22 -9 4 3 2 9 -5 14 -22 13 -31 11 -17 -5z"/>
<path d="M1760 11782 c0 -7 -7 -12 -15 -12 -8 0 -15 -4 -15 -10 0 -16 27 -11
34 6 4 9 4 19 1 22 -3 3 -5 0 -5 -6z"/>
<path d="M1840 11780 c0 -5 5 -10 11 -10 5 0 7 5 4 10 -3 6 -8 10 -11 10 -2 0
-4 -4 -4 -10z"/>
<path d="M1798 11707 c-3 -19 -2 -25 4 -19 6 6 8 18 6 28 -3 14 -5 12 -10 -9z"/>
<path d="M1822 11698 c6 -18 28 -21 28 -4 0 9 -7 16 -16 16 -9 0 -14 -5 -12
-12z"/>
<path d="M1996 11524 c-4 -14 -5 -28 -3 -31 3 -2 8 8 11 23 4 14 5 28 3 31 -3
2 -8 -8 -11 -23z"/>
<path d="M2160 11455 c0 -15 4 -24 10 -20 6 3 10 12 10 20 0 8 -4 17 -10 20
-6 4 -10 -5 -10 -20z"/>
<path d="M2120 11450 c0 -5 5 -10 10 -10 6 0 10 5 10 10 0 6 -4 10 -10 10 -5
0 -10 -4 -10 -10z"/>
<path d="M5692 11409 c7 -3 28 -10 45 -14 26 -5 32 -4 28 7 -3 8 -21 14 -46
14 -22 0 -35 -3 -27 -7z"/>
<path d="M6720 11390 c-9 -6 -10 -10 -3 -10 6 0 15 5 18 10 8 12 4 12 -15 0z"/>
<path d="M5510 11370 c0 -5 7 -10 15 -10 8 0 15 5 15 10 0 6 -7 10 -15 10 -8
0 -15 -4 -15 -10z"/>
<path d="M5664 11339 c-3 -6 -2 -15 4 -21 6 -6 11 -2 15 11 5 22 -7 29 -19 10z"/>
<path d="M5710 11340 c13 -8 12 -11 -4 -23 -18 -13 -17 -15 17 -21 21 -4 37
-11 37 -17 0 -6 5 -7 10 -4 6 3 10 17 10 31 0 13 -4 24 -10 24 -5 0 -10 -4
-10 -10 0 -18 -18 -11 -25 10 -3 11 -14 20 -23 20 -15 0 -15 -2 -2 -10z"/>
<path d="M5380 11305 c0 -8 4 -15 10 -15 5 0 7 7 4 15 -4 8 -8 15 -10 15 -2 0
-4 -7 -4 -15z"/>
<path d="M2380 11300 c0 -5 5 -10 10 -10 6 0 10 5 10 10 0 6 -4 10 -10 10 -5
0 -10 -4 -10 -10z"/>
<path d="M2500 11260 c0 -5 5 -10 11 -10 5 0 7 5 4 10 -3 6 -8 10 -11 10 -2 0
-4 -4 -4 -10z"/>
<path d="M5520 11249 c6 -10 18 -19 27 -19 9 0 24 -7 34 -16 17 -15 18 -14 14
12 -2 16 -4 34 -4 39 -1 6 -6 3 -11 -5 -7 -12 -15 -13 -39 -3 -29 10 -30 10
-21 -8z"/>
<path d="M2659 11209 c-10 -6 -4 -9 18 -9 17 0 40 -3 50 -7 10 -3 15 -3 12 1
-12 13 -66 24 -80 15z"/>
<path d="M5630 11199 c0 -11 5 -17 10 -14 6 3 10 13 10 21 0 8 -4 14 -10 14
-5 0 -10 -9 -10 -21z"/>
<path d="M7260 11210 c-13 -8 -12 -10 3 -10 9 0 17 5 17 10 0 12 -1 12 -20 0z"/>
<path d="M5290 11183 c0 -4 5 -15 10 -23 8 -13 10 -13 10 2 0 9 -4 20 -10 23
-5 3 -10 3 -10 -2z"/>
<path d="M5566 11182 c-3 -6 3 -12 15 -15 12 -3 19 -1 16 6 -5 15 -24 20 -31
9z"/>
<path d="M2711 11134 c0 -11 3 -14 6 -6 3 7 2 16 -1 19 -3 4 -6 -2 -5 -13z"/>
<path d="M2638 11117 c-3 -19 -2 -25 4 -19 6 6 8 18 6 28 -3 14 -5 12 -10 -9z"/>
<path d="M5280 11115 c-7 -9 -11 -17 -9 -20 3 -2 10 5 17 15 14 24 10 26 -8 5z"/>
<path d="M2735 11070 c3 -5 19 -10 36 -10 16 0 29 5 29 10 0 6 -16 10 -36 10
-21 0 -33 -4 -29 -10z"/>
<path d="M2932 11059 c2 -7 10 -15 17 -17 8 -3 12 1 9 9 -2 7 -10 15 -17 17
-8 3 -12 -1 -9 -9z"/>
<path d="M2985 10950 c-8 -13 13 -42 25 -35 11 7 6 38 -7 42 -6 2 -14 -1 -18
-7z"/>
<path d="M4710 10940 c-13 -8 -12 -10 3 -10 9 0 17 5 17 10 0 12 -1 12 -20 0z"/>
<path d="M3410 10820 c0 -5 5 -10 10 -10 6 0 10 5 10 10 0 6 -4 10 -10 10 -5
0 -10 -4 -10 -10z"/>
<path d="M4560 10766 c0 -8 4 -17 9 -20 5 -4 7 3 4 14 -6 23 -13 26 -13 6z"/>
<path d="M4513 10740 c1 -11 5 -20 10 -20 4 0 5 -4 2 -10 -3 -6 1 -7 9 -4 14
5 14 8 1 21 -19 19 -19 24 2 16 11 -4 14 -3 9 5 -12 19 -35 14 -33 -8z"/>
<path d="M4565 10720 c4 -6 11 -8 16 -5 14 9 11 15 -7 15 -8 0 -12 -5 -9 -10z"/>
<path d="M4476 10692 c-3 -5 1 -9 9 -9 8 0 12 4 9 9 -3 4 -7 8 -9 8 -2 0 -6
-4 -9 -8z"/>
<path d="M4479 10633 c-13 -16 -12 -17 4 -4 9 7 17 15 17 17 0 8 -8 3 -21 -13z"/>
<path d="M4447 10574 c-13 -26 -23 -35 -36 -31 -11 2 -23 -3 -30 -15 -9 -14
-19 -18 -36 -14 -13 3 -27 2 -30 -4 -4 -6 8 -10 29 -10 19 0 37 4 40 9 8 12
46 21 46 10 0 -5 -9 -18 -20 -29 -11 -11 -16 -20 -10 -20 17 0 49 42 43 58 -4
10 -2 13 5 8 8 -4 10 -2 6 7 -4 11 1 13 22 9 20 -4 25 -1 22 9 -3 8 -12 13
-21 11 -11 -2 -14 3 -10 18 8 31 -2 24 -20 -16z"/>
<path d="M4410 10570 c0 -5 5 -10 10 -10 6 0 10 5 10 10 0 6 -4 10 -10 10 -5
0 -10 -4 -10 -10z"/>
<path d="M4329 10543 c-13 -15 -12 -15 9 -4 23 12 28 21 13 21 -5 0 -15 -7
-22 -17z"/>
<path d="M4330 10435 c-8 -9 -8 -15 -2 -15 12 0 26 19 19 26 -2 2 -10 -2 -17
-11z"/>
<path d="M4116 10331 c3 -3 -6 -11 -18 -18 -33 -18 2 -17 37 1 19 10 35 12 51
6 15 -6 26 -5 30 2 4 7 3 8 -4 4 -7 -4 -12 -4 -12 1 0 4 -20 8 -44 8 -24 0
-42 -2 -40 -4z"/>
<path d="M4148 10281 l-28 -6 27 -12 c14 -7 23 -10 19 -6 -3 3 -1 12 5 20 6 7
10 12 8 12 -2 -1 -16 -4 -31 -8z"/>
<path d="M3663 10121 c-10 -10 -29 -22 -42 -26 -18 -5 -20 -9 -10 -16 11 -6
11 -11 1 -21 -9 -9 -12 -9 -12 0 0 6 -7 9 -16 5 -15 -6 -15 -8 2 -20 10 -7 33
-13 51 -13 20 0 33 -5 33 -12 0 -9 3 -9 9 1 5 8 16 11 26 7 21 -8 55 10 55 30
0 9 -8 29 -17 45 -14 24 -23 29 -41 24 -15 -4 -21 -2 -17 5 10 16 -3 12 -22
-9z"/>
<path d="M11040 10125 c0 -8 2 -15 4 -15 2 0 6 7 10 15 3 8 1 15 -4 15 -6 0
-10 -7 -10 -15z"/>
<path d="M3975 10070 c-18 -8 -18 -9 5 -8 14 0 36 4 50 8 24 8 24 8 -5 8 -16
0 -39 -3 -50 -8z"/>
<path d="M4032 10024 c-35 -38 -33 -38 35 -13 24 9 42 31 21 27 -7 -2 -12 3
-10 10 4 21 -12 13 -46 -24z"/>
<path d="M10908 10053 c7 -3 16 -2 19 1 4 3 -2 6 -13 5 -11 0 -14 -3 -6 -6z"/>
<path d="M8820 9799 c0 -5 5 -7 10 -4 6 3 10 8 10 11 0 2 -4 4 -10 4 -5 0 -10
-5 -10 -11z"/>
<path d="M9601 9774 c0 -11 3 -14 6 -6 3 7 2 16 -1 19 -3 4 -6 -2 -5 -13z"/>
<path d="M9440 9714 c0 -8 5 -12 10 -9 6 3 10 10 10 16 0 5 -4 9 -10 9 -5 0
-10 -7 -10 -16z"/>
<path d="M11115 8350 c-3 -6 1 -7 9 -4 18 7 21 14 7 14 -6 0 -13 -4 -16 -10z"/>
<path d="M11180 8313 c23 -5 24 -6 5 -14 -19 -7 -18 -8 3 -8 32 -1 23 23 -9
26 -24 1 -24 1 1 -4z"/>
<path d="M11101 8301 c-23 -6 -23 -6 -4 -30 13 -16 24 -21 33 -16 10 6 7 11
-11 17 l-24 9 25 14 c27 15 20 17 -19 6z"/>
<path d="M11088 8190 c12 -12 22 -28 23 -38 0 -14 2 -13 8 3 9 21 -16 55 -40
55 -7 0 -3 -9 9 -20z"/>
<path d="M11116 8121 c-4 -7 -5 -15 -2 -18 9 -9 19 4 14 18 -4 11 -6 11 -12 0z"/>
<path d="M11150 8096 c0 -9 5 -16 10 -16 6 0 10 4 10 9 0 6 -4 13 -10 16 -5 3
-10 -1 -10 -9z"/>
<path d="M11190 8001 c0 -5 -3 -16 -6 -24 -3 -8 1 -17 9 -20 11 -4 13 0 10 14
-4 13 0 19 11 19 10 0 14 5 11 10 -8 13 -35 13 -35 1z"/>
<path d="M11220 7910 c0 -5 5 -10 10 -10 6 0 10 5 10 10 0 6 -4 10 -10 10 -5
0 -10 -4 -10 -10z"/>
<path d="M8360 7882 c-33 -15 -69 -45 -86 -69 -14 -22 -14 -28 -3 -37 19 -15
72 -94 87 -130 18 -41 31 -23 48 65 15 80 14 122 -5 157 -12 23 -17 25 -41 14z"/>
<path d="M11185 7860 c3 -5 8 -10 11 -10 2 0 4 5 4 10 0 6 -5 10 -11 10 -5 0
-7 -4 -4 -10z"/>
<path d="M11265 7320 c3 -5 8 -10 11 -10 2 0 4 5 4 10 0 6 -5 10 -11 10 -5 0
-7 -4 -4 -10z"/>
<path d="M7881 6944 c0 -11 3 -14 6 -6 3 7 2 16 -1 19 -3 4 -6 -2 -5 -13z"/>
<path d="M320 6914 c0 -9 5 -14 12 -12 18 6 21 28 4 28 -9 0 -16 -7 -16 -16z"/>
<path d="M5185 6871 c-3 -5 -1 -12 5 -16 5 -3 10 1 10 9 0 18 -6 21 -15 7z"/>
<path d="M11250 6640 c0 -5 7 -10 16 -10 8 0 12 5 9 10 -3 6 -10 10 -16 10 -5
0 -9 -4 -9 -10z"/>
<path d="M11220 6581 c0 -6 5 -13 10 -16 6 -3 10 1 10 9 0 9 -4 16 -10 16 -5
0 -10 -4 -10 -9z"/>
<path d="M11065 5740 c3 -5 10 -10 16 -10 5 0 9 5 9 10 0 6 -7 10 -16 10 -8 0
-12 -4 -9 -10z"/>
<path d="M7670 5729 c0 -6 -8 -9 -17 -7 -25 5 -62 -52 -56 -86 4 -19 1 -26
-11 -26 -8 0 -18 -11 -22 -25 -3 -14 -13 -25 -22 -25 -9 0 -26 -10 -38 -21
-16 -15 -36 -22 -64 -22 -34 0 -41 -3 -46 -23 -3 -13 -12 -24 -20 -24 -19 0
-18 -26 2 -34 8 -3 12 -10 9 -16 -3 -5 0 -10 7 -11 7 0 3 -5 -9 -11 -24 -12
-30 -29 -25 -69 l4 -27 40 16 c35 14 39 19 34 42 -4 23 5 37 56 91 76 80 130
153 158 213 12 25 26 49 31 52 12 7 11 24 -1 24 -5 0 -10 -5 -10 -11z m-226
-255 c10 -25 7 -34 -8 -28 -8 3 -17 0 -21 -5 -7 -13 -25 -5 -25 11 0 5 7 8 15
4 10 -4 15 1 15 14 0 24 15 26 24 4z m-57 -136 c-3 -8 -6 -5 -6 6 -1 11 2 17
5 13 3 -3 4 -12 1 -19z"/>
<path d="M11121 5714 c0 -11 3 -14 6 -6 3 7 2 16 -1 19 -3 4 -6 -2 -5 -13z"/>
<path d="M6078 5695 c-4 -5 -74 -15 -115 -18 -7 0 -11 -3 -8 -6 3 -3 -5 -11
-17 -18 -13 -7 -17 -12 -10 -13 7 0 22 5 33 10 10 6 35 11 54 12 19 1 35 5 35
10 0 5 9 6 20 3 26 -8 100 4 100 16 0 9 -83 13 -92 4z"/>
<path d="M5545 5680 c3 -5 11 -10 16 -10 6 0 7 5 4 10 -3 6 -11 10 -16 10 -6
0 -7 -4 -4 -10z"/>
<path d="M5875 5650 c-3 -5 -1 -10 4 -10 6 0 11 5 11 10 0 6 -2 10 -4 10 -3 0
-8 -4 -11 -10z"/>
<path d="M11035 5590 c-3 -6 1 -7 9 -4 18 7 21 14 7 14 -6 0 -13 -4 -16 -10z"/>
<path d="M11128 5573 c7 -3 16 -2 19 1 4 3 -2 6 -13 5 -11 0 -14 -3 -6 -6z"/>
<path d="M11145 5530 c-3 -5 1 -10 10 -10 9 0 13 5 10 10 -3 6 -8 10 -10 10
-2 0 -7 -4 -10 -10z"/>
<path d="M10980 5413 c0 -13 5 -23 10 -23 13 0 13 11 0 30 -8 12 -10 11 -10
-7z"/>
<path d="M11030 5420 c-12 -8 -10 -10 8 -10 13 0 20 4 17 10 -7 12 -6 12 -25
0z"/>
<path d="M7187 5293 c-12 -12 -7 -41 8 -47 8 -3 15 -2 16 2 0 4 2 17 3 30 3
21 -13 30 -27 15z"/>
<path d="M10928 5253 c6 -2 18 -2 25 0 6 3 1 5 -13 5 -14 0 -19 -2 -12 -5z"/>
<path d="M7243 5238 c-23 -11 -31 -28 -13 -28 6 0 10 -5 10 -11 0 -8 -5 -8
-15 1 -12 10 -18 10 -31 -1 -14 -12 -14 -14 2 -26 17 -12 17 -13 1 -13 -15 0
-15 -2 -5 -14 11 -11 19 -9 50 12 21 13 38 31 38 39 0 7 7 16 15 19 8 4 15 11
15 16 0 6 -7 8 -15 4 -8 -3 -15 -1 -15 4 0 12 -9 12 -37 -2z"/>
<path d="M7120 5154 c0 -8 5 -12 10 -9 6 4 8 11 5 16 -9 14 -15 11 -15 -7z"/>
<path d="M9829 4863 c-1 -71 -1 -131 0 -135 0 -4 1 -38 2 -76 2 -82 9 -98 35
-85 11 5 26 9 34 8 8 -1 29 -3 47 -3 17 -1 39 -9 48 -18 9 -9 19 -13 22 -10 4
4 6 82 4 174 -2 92 -3 191 -3 220 0 28 -4 52 -8 52 -17 0 -32 -31 -32 -65 0
-19 -3 -35 -7 -35 -5 0 -8 -64 -7 -142 l1 -143 -37 -3 c-34 -3 -38 -1 -39 20
-4 181 2 292 16 314 19 29 19 45 1 38 -8 -3 -17 -1 -21 5 -3 6 -17 11 -31 11
l-24 0 -1 -127z"/>
<path d="M7424 4564 c3 -49 11 -85 22 -102 20 -30 46 -52 55 -46 3 2 4 45 2
96 -4 78 -8 96 -25 111 -11 9 -29 17 -39 17 -17 0 -19 -7 -15 -76z"/>
<path d="M4282 4588 c-17 -17 -16 -103 1 -88 6 6 34 27 61 47 43 32 47 37 30
44 -30 12 -79 10 -92 -3z"/>
<path d="M9925 4480 c-3 -5 -1 -10 4 -10 6 0 11 5 11 10 0 6 -2 10 -4 10 -3 0
-8 -4 -11 -10z"/>
<path d="M9455 4450 c-4 -6 -10 -8 -15 -5 -4 3 -10 -5 -13 -17 -8 -27 5 -36
43 -30 23 3 30 9 30 27 0 13 -7 26 -16 29 -21 8 -22 8 -29 -4z"/>
<path d="M10636 4451 c-4 -7 -5 -15 -2 -18 9 -9 19 4 14 18 -4 11 -6 11 -12 0z"/>
<path d="M9890 4440 c-8 -5 -12 -12 -9 -15 4 -3 12 1 19 10 14 17 11 19 -10 5z"/>
<path d="M9924 4435 c3 -9 2 -13 -3 -10 -6 3 -14 -2 -19 -11 -8 -14 -11 -14
-23 -2 -18 18 -30 18 -48 1 -7 -8 -25 -13 -40 -11 -14 1 -31 -1 -38 -5 -6 -4
-14 -3 -17 2 -4 5 -2 12 4 16 6 4 8 11 5 16 -9 13 -53 11 -57 -3 -2 -6 -13
-12 -24 -13 -10 -1 -27 -5 -36 -9 -9 -4 -25 -3 -37 3 -27 15 -41 14 -41 -3 0
-15 18 -23 67 -32 15 -3 29 -6 30 -8 1 -1 3 -38 4 -82 2 -123 3 -124 154 -124
l124 0 21 -30 c13 -19 19 -37 15 -50 -4 -11 -2 -20 4 -20 6 0 10 -3 10 -7 -1
-5 0 -11 1 -15 3 -10 7 -25 9 -35 1 -5 6 -1 11 7 8 11 10 8 8 -15 -2 -36 30
-95 52 -95 12 0 13 -2 1 -9 -8 -5 -11 -16 -7 -26 5 -14 9 -15 21 -5 9 8 15 8
15 2 0 -6 -6 -12 -12 -14 -20 -7 22 -87 50 -94 12 -4 22 -11 22 -16 0 -6 -7
-8 -15 -4 -8 3 -15 1 -15 -4 0 -6 4 -10 8 -10 5 0 15 -16 22 -36 12 -30 18
-34 39 -29 21 5 23 4 12 -8 -14 -18 -4 -67 14 -67 7 0 26 -7 41 -15 27 -14 27
-15 7 -15 -13 0 -23 -4 -23 -9 0 -5 -3 -16 -6 -24 -4 -10 2 -16 16 -19 28 -4
55 -49 46 -74 -7 -18 -9 -17 -22 6 l-15 25 7 -25 c9 -37 23 -48 35 -27 13 23
24 22 26 -3 1 -12 -4 -20 -13 -20 -9 0 -14 -6 -11 -12 2 -7 14 -12 25 -10 18
3 22 -2 22 -22 0 -29 19 -44 31 -25 14 23 20 4 9 -26 -8 -21 -8 -30 1 -36 6
-4 9 -11 5 -17 -11 -19 6 -42 31 -42 23 0 25 3 19 33 l-6 32 21 -33 c15 -24
25 -30 32 -23 15 15 27 14 27 -4 0 -9 -9 -15 -22 -15 -21 0 -21 0 -2 -15 14
-11 15 -14 3 -9 -10 3 -20 1 -23 -4 -3 -6 6 -13 21 -16 19 -5 23 -10 14 -19
-17 -17 -13 -27 9 -27 18 0 19 -3 9 -21 -9 -18 -8 -24 7 -33 36 -20 44 -16 43
22 l-1 37 -9 -33 c-10 -33 -29 -36 -29 -4 0 15 2 15 10 2 7 -11 10 -7 10 17 0
26 -3 31 -17 27 -15 -5 -16 -4 -3 5 13 10 13 12 0 21 -12 7 -10 9 8 7 14 -1
22 -8 22 -19 0 -16 15 -23 45 -19 7 0 10 -15 8 -37 -2 -30 -1 -33 6 -12 l7 25
8 -23 c9 -26 45 -44 62 -31 13 10 114 10 114 -1 0 -3 17 -7 38 -8 20 0 73 -3
117 -5 57 -3 86 0 102 9 13 8 43 17 68 21 25 3 45 10 45 14 0 14 38 10 43 -3
3 -8 6 -6 6 5 1 9 6 17 12 17 6 0 25 6 42 14 66 29 118 46 141 46 13 0 35 9
49 20 14 11 29 20 33 20 4 0 26 8 48 19 23 10 57 24 76 31 19 8 46 21 60 30
24 17 69 35 250 104 134 52 151 57 220 73 36 8 76 21 90 28 l25 14 3 453 2
453 -85 1 c-47 1 -85 -3 -85 -7 0 -5 -9 -9 -20 -9 -12 0 -17 5 -14 14 3 8 1
17 -4 20 -5 3 -9 -2 -8 -12 1 -12 -5 -16 -19 -14 -11 2 -32 4 -47 5 -16 1 -28
7 -28 12 0 6 -5 3 -10 -5 -8 -12 -13 -13 -30 -2 -11 7 -20 8 -20 3 0 -11 -19
-13 -150 -12 -52 0 -116 1 -142 1 -33 0 -48 4 -48 13 0 9 -12 11 -40 9 -26 -3
-40 -9 -40 -18 0 -18 -6 -18 -41 3 -22 13 -34 15 -47 7 -22 -14 -138 -18 -146
-5 -7 10 -32 9 -77 -3 -16 -5 -45 0 -80 13 -71 27 -99 28 -92 1 4 -16 1 -19
-26 -17 -17 1 -33 7 -35 13 -3 9 -19 8 -61 -1 -58 -14 -120 -10 -143 8 -10 8
-16 7 -22 -3 -4 -7 -23 -13 -41 -12 -54 1 -109 13 -104 22 3 5 1 11 -5 15 -5
3 -10 -1 -10 -9 0 -22 -9 -24 -80 -15 -75 10 -75 10 -157 9 -35 0 -72 4 -83
10 -16 8 -22 8 -26 -4 -4 -11 -27 -14 -110 -13 -57 1 -104 6 -104 10 0 5 -4 6
-9 3 -10 -7 -63 18 -55 26 2 3 -3 8 -12 12 -12 5 -15 2 -10 -9z m80 -380 c-4
-8 -11 -15 -16 -15 -6 0 -5 6 2 15 7 8 14 15 16 15 2 0 1 -7 -2 -15z m186
-329 c0 -3 -4 -8 -10 -11 -5 -3 -10 -1 -10 4 0 6 5 11 10 11 6 0 10 -2 10 -4z
m195 -375 c3 -5 1 -12 -5 -16 -5 -3 -10 1 -10 9 0 18 6 21 15 7z"/>
<path d="M10250 4430 c0 -5 5 -10 10 -10 6 0 10 5 10 10 0 6 -4 10 -10 10 -5
0 -10 -4 -10 -10z"/>
<path d="M11855 4390 c-3 -5 1 -10 9 -10 9 0 16 5 16 10 0 6 -4 10 -9 10 -6 0
-13 -4 -16 -10z"/>
<path d="M7580 4281 c0 -6 10 -13 23 -16 12 -4 32 -16 44 -28 l22 -20 12 27
c7 14 9 29 6 33 -11 10 -107 14 -107 4z"/>
<path d="M7670 4151 c0 -3 21 -29 46 -56 25 -28 52 -59 59 -70 15 -23 22 -149
10 -180 -6 -15 -1 -13 24 10 62 57 70 101 30 154 -11 13 -17 27 -14 31 7 12
-87 94 -122 107 -18 6 -33 8 -33 4z"/>
<path d="M7730 3768 c-53 -63 -61 -76 -64 -101 -1 -13 -6 -28 -10 -35 -6 -10
-2 -10 19 0 28 13 72 88 85 146 5 17 7 32 6 32 0 0 -17 -19 -36 -42z"/>
<path d="M12175 3324 c-44 -13 -98 -28 -120 -33 -36 -8 -75 -21 -130 -42 -11
-4 -42 -13 -70 -19 -27 -6 -52 -15 -55 -19 -3 -4 -39 -18 -80 -31 -41 -13 -77
-26 -80 -29 -11 -13 -54 -33 -78 -37 -15 -3 -32 -10 -39 -16 -7 -6 -13 -8 -13
-4 0 3 -17 -4 -37 -15 -39 -22 -155 -61 -161 -54 -3 2 -11 -3 -20 -11 -11 -11
-17 -12 -22 -4 -5 8 -9 8 -13 -2 -3 -8 -22 -15 -48 -16 -24 -2 -45 -7 -47 -13
-2 -5 -21 -9 -43 -9 -21 0 -39 -4 -39 -10 0 -5 -7 -7 -15 -4 -8 4 -15 2 -15
-4 0 -5 -10 -8 -22 -8 -13 1 -32 -2 -43 -7 -11 -6 -38 -12 -60 -15 -22 -2 -44
-10 -50 -18 -5 -7 -23 -14 -40 -16 -27 -3 -22 -6 35 -27 36 -13 66 -23 68 -22
5 4 67 -34 75 -46 12 -19 27 -16 21 5 -5 14 -3 14 10 -2 9 -11 16 -15 16 -9 0
6 16 11 36 11 20 0 41 5 47 11 6 6 19 11 29 11 11 0 29 10 41 21 12 12 16 18
8 14 -10 -5 -12 -4 -7 4 4 6 12 8 19 4 21 -13 65 -10 60 4 -3 9 3 13 20 13 13
0 30 6 36 14 13 15 96 40 124 37 9 -1 17 3 17 8 0 6 11 11 25 11 14 0 25 4 25
9 0 5 10 13 22 16 11 4 32 19 45 33 12 14 23 21 23 16 0 -5 5 -2 10 6 7 11 10
12 10 2 0 -10 4 -9 16 3 12 12 20 13 29 5 11 -9 12 -7 8 9 -5 18 -1 20 26 17
23 -2 34 2 42 15 5 11 19 19 29 19 11 0 20 4 20 8 0 11 113 58 160 67 19 4 40
11 45 15 9 6 54 17 208 52 l57 13 0 47 c0 57 0 57 -115 22z"/>
<path d="M10455 3170 c3 -5 8 -10 11 -10 2 0 4 5 4 10 0 6 -5 10 -11 10 -5 0
-7 -4 -4 -10z"/>
<path d="M10420 3136 c0 -9 30 -14 35 -6 4 6 -3 10 -14 10 -12 0 -21 -2 -21
-4z"/>
<path d="M10601 3064 c0 -11 3 -14 6 -6 3 7 2 16 -1 19 -3 4 -6 -2 -5 -13z"/>
<path d="M10605 3013 c3 -7 1 -13 -5 -13 -7 0 -5 -6 4 -15 28 -29 37 -12 10
21 -8 10 -13 13 -9 7z"/>
<path d="M10636 2997 c3 -10 9 -15 12 -12 3 3 0 11 -7 18 -10 9 -11 8 -5 -6z"/>
<path d="M12252 2893 c-22 -27 -26 -51 -9 -45 5 1 6 -2 2 -8 -3 -6 -11 -8 -16
-5 -5 4 -14 3 -21 -1 -8 -5 -6 -10 8 -15 16 -6 14 -8 -9 -8 -16 -1 -26 3 -22
8 3 5 0 13 -6 16 -6 4 -13 -2 -16 -13 -4 -17 -9 -19 -29 -12 -29 11 -51 4 -59
-18 -3 -10 -16 -22 -30 -29 -22 -10 -25 -9 -25 8 0 23 -15 25 -24 3 -3 -8 -2
-12 4 -9 6 3 10 2 10 -4 0 -9 -26 -21 -56 -27 -6 -1 -27 -9 -45 -17 -42 -19
-72 -19 -65 0 3 8 1 11 -4 8 -6 -3 -10 -13 -10 -22 0 -12 -7 -14 -30 -10 -17
4 -32 2 -36 -5 -4 -7 -3 -8 4 -4 7 4 12 2 12 -3 0 -19 -28 -12 -35 9 -3 11
-10 20 -15 20 -11 0 -21 -45 -14 -65 6 -14 0 -16 -45 -12 -28 3 -51 1 -51 -4
0 -5 14 -9 31 -9 28 0 29 -1 15 -16 -9 -8 -16 -22 -16 -30 0 -8 -4 -14 -10
-14 -14 0 -13 23 2 38 7 7 8 12 2 12 -5 0 -17 -11 -27 -24 -20 -27 -64 -38
-159 -40 -60 -2 -67 1 -46 22 7 7 9 12 4 12 -8 0 -36 -26 -36 -33 0 -3 16 -12
35 -21 30 -15 34 -20 25 -36 -8 -16 -8 -18 5 -14 8 4 15 12 15 20 0 8 7 14 16
14 8 0 13 -4 9 -9 -8 -14 9 -21 25 -10 10 6 11 9 3 9 -18 0 -16 17 3 24 19 7
44 -10 44 -30 0 -7 -9 -16 -20 -19 -11 -3 -20 -11 -20 -17 0 -6 -14 -24 -31
-41 l-32 -30 26 5 c15 3 24 2 22 -3 -3 -4 0 -9 7 -12 7 -2 2 -2 -10 0 l-24 4
21 -30 c15 -20 27 -28 39 -25 12 4 13 3 4 -3 -10 -8 -8 -15 8 -36 12 -15 29
-27 37 -27 9 0 13 -3 10 -7 -9 -9 22 -43 40 -43 7 0 13 -10 14 -22 0 -13 10
-42 22 -65 58 -111 90 -169 102 -183 7 -8 29 -48 49 -89 21 -41 45 -86 54
-100 32 -49 42 -66 48 -81 3 -8 14 -33 24 -55 54 -118 119 -277 135 -330 9
-33 23 -76 30 -95 35 -97 82 -306 95 -430 5 -47 14 -117 19 -156 6 -39 13
-171 16 -294 5 -212 17 -310 36 -310 13 0 12 1556 -1 1581 -8 13 -7 19 0 19 6
0 9 13 8 29 -2 23 -6 28 -16 22 -8 -5 -23 -6 -34 -3 -14 3 -21 -2 -25 -17 -4
-16 -10 -20 -22 -15 -9 3 -27 9 -40 12 -18 4 -22 2 -16 -8 6 -10 4 -12 -8 -7
-9 3 -19 2 -22 -3 -8 -13 -55 -13 -55 0 0 14 0 13 -16 66 -19 64 -11 72 68 62
35 -4 91 -10 126 -14 l62 -7 0 602 c0 330 -3 601 -8 601 -4 0 -17 -12 -30 -27z
m-474 -251 c2 -7 -6 -12 -17 -12 -21 0 -27 11 -14 24 9 9 26 2 31 -12z m-58
-52 c0 -5 -7 -10 -15 -10 -8 0 -15 5 -15 10 0 6 7 10 15 10 8 0 15 -4 15 -10z
m-170 -150 c0 -5 -2 -10 -4 -10 -3 0 -8 5 -11 10 -3 6 -1 10 4 10 6 0 11 -4
11 -10z m730 -820 c0 -5 -2 -10 -4 -10 -3 0 -8 5 -11 10 -3 6 -1 10 4 10 6 0
11 -4 11 -10z"/>
<path d="M11830 2800 c-9 -6 -10 -10 -3 -10 6 0 15 5 18 10 8 12 4 12 -15 0z"/>
<path d="M11890 2781 c0 -5 9 -13 20 -16 11 -4 17 -11 14 -17 -5 -8 -1 -9 10
-5 10 4 24 7 32 7 8 0 14 4 14 10 0 5 -7 7 -15 4 -8 -4 -21 -1 -29 5 -7 6 -16
8 -19 4 -4 -3 -7 -1 -7 5 0 7 -4 12 -10 12 -5 0 -10 -4 -10 -9z"/>
<path d="M11728 2743 c6 -2 18 -2 25 0 6 3 1 5 -13 5 -14 0 -19 -2 -12 -5z"/>
<path d="M11782 2739 c2 -7 10 -15 17 -17 8 -3 12 1 9 9 -2 7 -10 15 -17 17
-8 3 -12 -1 -9 -9z"/>
<path d="M11550 2701 c-7 -13 -7 -22 0 -26 13 -8 43 22 35 35 -10 16 -23 12
-35 -9z"/>
<path d="M11600 2675 c0 -8 4 -15 10 -15 5 0 7 7 4 15 -4 8 -8 15 -10 15 -2 0
-4 -7 -4 -15z"/>
<path d="M11430 2644 c0 -8 5 -12 10 -9 6 3 10 10 10 16 0 5 -4 9 -10 9 -5 0
-10 -7 -10 -16z"/>
<path d="M11457 2589 c4 -14 8 -17 13 -9 6 9 9 9 13 -1 3 -8 6 -4 6 9 1 15 -5
22 -18 22 -14 0 -18 -5 -14 -21z"/>
<path d="M11548 2596 c-16 -5 -28 -13 -28 -18 0 -11 67 -10 74 1 11 17 -18 28
-46 17z"/>
<path d="M9466 2532 c-3 -5 1 -9 9 -9 8 0 12 4 9 9 -3 4 -7 8 -9 8 -2 0 -6 -4
-9 -8z"/>
<path d="M11340 2532 c0 -5 7 -15 15 -22 8 -7 15 -9 15 -6 0 4 -7 14 -15 22
-8 9 -15 11 -15 6z"/>
<path d="M9475 2500 c-3 -5 -1 -10 4 -10 6 0 11 5 11 10 0 6 -2 10 -4 10 -3 0
-8 -4 -11 -10z"/>
<path d="M9755 2480 c-4 -6 -9 -39 -11 -73 l-4 -62 14 70 c13 71 14 86 1 65z"/>
<path d="M11478 2463 c-10 -2 -18 -9 -18 -15 0 -5 7 -7 16 -4 9 3 20 6 25 6 5
0 9 5 9 10 0 10 -3 11 -32 3z"/>
<path d="M9461 2444 c0 -11 3 -14 6 -6 3 7 2 16 -1 19 -3 4 -6 -2 -5 -13z"/>
<path d="M11435 2430 c3 -5 8 -10 11 -10 2 0 4 5 4 10 0 6 -5 10 -11 10 -5 0
-7 -4 -4 -10z"/>
<path d="M1560 2310 c0 -19 3 -21 12 -12 9 9 9 15 0 24 -9 9 -12 7 -12 -12z"/>
<path d="M9732 2310 c0 -14 2 -19 5 -12 2 6 2 18 0 25 -3 6 -5 1 -5 -13z"/>
<path d="M10093 2288 c-20 -26 -26 -41 -15 -34 12 7 36 46 29 46 -3 0 -9 -6
-14 -12z"/>
<path d="M1570 2260 c0 -5 5 -10 10 -10 6 0 10 -20 10 -45 0 -25 5 -45 10 -45
6 0 10 -17 10 -37 1 -21 7 -51 15 -68 14 -29 15 -28 9 25 -7 69 -42 190 -54
190 -6 0 -10 -4 -10 -10z"/>
<path d="M3012 2241 c-35 -18 -107 -100 -123 -139 -5 -13 -18 -26 -30 -29 -29
-8 -17 -28 17 -28 21 0 30 -5 32 -20 3 -11 7 -22 11 -25 10 -8 50 -93 56 -121
4 -16 -3 -46 -19 -84 -15 -32 -28 -68 -30 -81 -3 -13 -14 -37 -25 -53 -12 -16
-21 -32 -21 -35 0 -3 -9 -26 -21 -51 -11 -24 -18 -49 -14 -55 3 -5 2 -10 -3
-10 -10 0 -57 -100 -54 -114 2 -4 -2 -13 -7 -20 -14 -17 -98 -275 -117 -359
-8 -39 -20 -88 -25 -107 -17 -66 -70 -345 -79 -420 -12 -91 -67 -412 -79 -457
l-9 -33 63 0 64 0 6 38 c4 20 15 80 26 132 11 52 31 158 45 235 55 300 98 510
154 745 32 136 61 258 64 273 6 32 7 36 42 152 15 50 37 111 50 137 13 26 24
52 24 59 0 17 43 48 68 49 31 0 86 55 104 105 22 59 22 160 0 222 -23 66 -45
90 -91 103 -44 12 -39 13 -79 -9z"/>
<path d="M10045 2229 c-4 -6 -5 -12 -2 -15 2 -3 7 2 10 11 7 17 1 20 -8 4z"/>
<path d="M10010 2178 c-12 -22 -12 -22 6 -6 10 10 15 20 12 24 -4 3 -12 -5
-18 -18z"/>
<path d="M2295 2130 c-22 -24 -86 -34 -128 -21 -27 9 -45 8 -96 -9 -35 -11
-85 -20 -111 -20 -59 0 -72 -14 -78 -83 l-4 -52 78 0 c44 0 86 4 94 10 8 5 37
12 63 15 l49 7 -4 -34 c-4 -37 -6 -38 46 34 30 42 42 51 65 51 32 -1 45 -19
57 -78 9 -39 9 -36 0 -70 -4 -14 5 -2 19 25 15 28 36 60 46 71 18 19 25 20 55
11 20 -6 54 -27 77 -47 23 -20 79 -51 124 -70 46 -19 83 -41 83 -47 0 -49 71
80 76 137 1 19 0 27 -3 17 -4 -15 -12 -18 -36 -14 -73 11 -148 42 -182 73 -61
57 -88 74 -121 74 -22 0 -34 -5 -34 -14 0 -7 -6 -19 -14 -25 -11 -10 -18 -5
-32 26 -23 45 -64 61 -89 33z"/>
<path d="M1630 2013 c0 -4 5 -15 10 -23 8 -13 10 -13 10 2 0 9 -4 20 -10 23
-5 3 -10 3 -10 -2z"/>
<path d="M4641 1830 c-45 -25 -99 -79 -147 -144 -34 -47 -147 -146 -213 -187
-50 -30 -192 -172 -242 -242 -102 -140 -166 -306 -210 -547 -31 -174 -68 -394
-84 -500 -8 -52 -19 -119 -25 -149 -5 -29 -10 -55 -10 -57 0 -2 1053 -4 2341
-4 l2340 0 -6 57 c-19 173 -100 499 -145 581 -5 9 -20 42 -35 72 -63 135 -103
192 -194 278 -71 67 -141 113 -211 136 -30 11 -118 49 -195 87 -185 89 -408
169 -472 169 -56 0 -226 31 -313 58 -92 28 -172 31 -510 21 -144 -4 -145 -4
-205 25 -82 40 -108 61 -146 115 -36 52 -98 110 -117 111 -7 0 -25 6 -40 14
-39 20 -80 26 -222 32 -115 5 -245 31 -275 54 -25 19 -106 20 -219 0 -180 -31
-227 -28 -301 19 -38 25 -101 25 -144 1z"/>
<path d="M706 1752 c-7 -12 16 -22 53 -22 15 0 32 -5 38 -11 7 -7 31 -13 54
-15 24 -3 45 -8 49 -13 3 -5 16 -8 30 -7 14 1 32 -3 40 -8 13 -10 13 -9 1 7
-7 9 -20 17 -29 17 -8 0 -23 7 -33 16 -9 8 -27 16 -40 17 -13 0 -27 6 -32 12
-5 6 -13 3 -24 -10 -12 -16 -14 -16 -10 -3 3 10 2 20 -3 23 -6 4 -10 0 -10 -7
0 -10 -2 -10 -9 0 -7 12 -12 12 -30 0 -18 -11 -23 -11 -30 1 -5 8 -11 9 -15 3z"/>
<path d="M1205 1720 c10 -11 23 -20 28 -20 6 0 2 9 -8 20 -10 11 -23 20 -28
20 -6 0 -2 -9 8 -20z"/>
<path d="M1965 1670 c-3 -5 -1 -10 4 -10 6 0 11 5 11 10 0 6 -2 10 -4 10 -3 0
-8 -4 -11 -10z"/>
<path d="M1930 1583 c-11 -21 -27 -48 -36 -60 -9 -13 -14 -23 -12 -23 7 0 64
82 71 103 11 30 -2 19 -23 -20z"/>
<path d="M1250 1564 c35 -44 49 -56 59 -49 6 3 11 0 11 -7 0 -14 70 -58 91
-58 7 0 3 9 -9 20 -12 12 -22 24 -22 29 0 5 -28 23 -62 42 -82 44 -86 46 -68
23z"/>
<path d="M1450 1528 c0 -2 9 -21 20 -43 11 -22 20 -54 20 -72 0 -17 5 -35 10
-38 6 -3 10 -16 10 -29 0 -12 14 -36 30 -52 17 -16 35 -39 40 -51 5 -13 14
-23 20 -23 15 0 12 36 -4 49 -8 7 -18 27 -21 44 -8 39 -32 94 -45 102 -6 3
-10 14 -10 23 0 10 -9 24 -20 32 -11 8 -20 20 -20 26 0 6 -7 17 -15 24 -8 7
-15 11 -15 8z"/>
<path d="M1674 1484 c10 -41 24 -51 18 -14 -2 17 -9 33 -15 37 -6 4 -7 -4 -3
-23z"/>
<path d="M1856 1454 c-4 -9 -4 -19 -1 -22 2 -3 7 3 11 12 4 9 4 19 1 22 -2 3
-7 -3 -11 -12z"/>
<path d="M1833 1412 c-13 -9 -56 -101 -74 -159 -15 -54 -39 -57 -40 -5 -1 27
-5 15 -19 -48 -10 -47 -21 -93 -25 -102 -4 -10 0 -26 9 -40 10 -13 16 -43 16
-74 0 -40 5 -55 21 -70 l22 -19 -6 61 c-7 69 17 185 76 362 19 56 34 102 33
102 -1 0 -6 -4 -13 -8z"/>
<path d="M1605 1200 c-8 -13 15 -24 27 -12 6 6 4 11 -6 15 -8 3 -18 2 -21 -3z"/>
<path d="M1623 1174 c-14 -6 -1 -47 23 -71 13 -14 14 -13 8 13 -4 16 -7 37 -6
47 1 17 -4 19 -25 11z"/>
<path d="M9895 1080 c-10 -11 -14 -20 -9 -20 5 0 15 9 22 20 7 11 11 20 9 20
-2 0 -12 -9 -22 -20z"/>
<path d="M9841 1014 c-14 -38 -12 -47 6 -36 13 9 28 72 16 72 -5 0 -15 -16
-22 -36z"/>
<path d="M2387 953 c-4 -3 -7 -11 -7 -17 0 -6 5 -5 12 2 6 6 9 14 7 17 -3 3
-9 2 -12 -2z"/>
<path d="M9804 923 c-9 -21 -20 -46 -25 -55 -13 -26 -11 -66 4 -71 10 -4 10
-6 0 -6 -9 -1 -13 -21 -13 -63 0 -78 -21 -180 -50 -243 -12 -26 -19 -49 -16
-52 3 -3 12 11 20 30 8 20 26 53 40 73 19 28 23 41 14 51 -8 10 -6 13 8 13 14
0 15 3 6 8 -10 7 -9 15 4 40 15 31 12 58 -7 47 -10 -7 -3 36 17 103 6 23 8 42
3 42 -12 0 -1 48 17 77 17 26 18 43 4 43 -6 0 -18 -17 -26 -37z"/>
<path d="M9340 927 c0 -13 6 -29 13 -36 10 -11 10 -14 0 -18 -7 -3 -13 -9 -13
-14 0 -6 5 -7 11 -3 7 4 7 -2 -1 -17 -9 -16 -11 -56 -6 -143 12 -219 15 -309
16 -504 l2 -192 23 0 c14 0 25 7 28 20 6 24 1 430 -8 570 -11 182 -12 192 -25
200 -8 5 -9 9 -1 11 8 3 8 15 -1 44 -6 22 -10 50 -10 63 1 13 -2 20 -8 17 -6
-3 -7 1 -4 9 3 9 1 16 -5 16 -6 0 -11 -10 -11 -23z"/>
<path d="M2340 859 c0 -5 5 -7 10 -4 6 3 10 8 10 11 0 2 -4 4 -10 4 -5 0 -10
-5 -10 -11z"/>
<path d="M2317 800 c-11 -29 -20 -38 -31 -34 -13 5 -16 -1 -16 -25 0 -33 -9
-47 -77 -120 -24 -25 -43 -51 -43 -58 0 -7 -7 -13 -15 -13 -18 0 -20 -17 -2
-23 9 -3 9 -9 1 -23 -12 -20 -71 -37 -80 -23 -3 5 0 9 7 9 7 0 10 3 6 6 -9 9
-45 -19 -123 -96 l-71 -70 -86 0 -87 0 0 73 c1 68 8 109 43 250 8 31 11 60 6
62 -4 3 -6 23 -5 45 2 22 0 40 -5 40 -13 0 -28 -62 -28 -115 0 -27 -8 -75 -16
-105 -20 -71 -34 -453 -16 -464 7 -5 11 4 11 27 l0 35 61 4 c64 5 79 15 111
78 7 14 23 42 35 62 21 34 25 36 60 31 21 -3 48 -11 59 -19 21 -12 21 -15 8
-71 -8 -35 -22 -65 -34 -75 -17 -14 -20 -24 -15 -48 4 -19 3 -30 -4 -30 -6 0
-11 -7 -11 -15 0 -8 -4 -15 -10 -15 -5 0 -7 -7 -4 -15 4 -8 1 -15 -5 -15 -6 0
-11 -9 -11 -21 0 -11 -4 -18 -9 -14 -5 3 -12 1 -16 -5 -4 -6 8 -10 29 -10 31
0 36 4 46 38 7 20 23 60 35 87 13 28 41 88 63 135 21 47 51 114 66 150 16 36
33 74 39 85 39 73 97 195 103 219 4 16 14 37 22 47 20 23 43 79 33 79 -4 0
-15 -18 -24 -40z"/>
<path d="M9828 735 c-10 -13 -18 -29 -18 -34 0 -21 15 -10 32 24 20 40 11 46
-14 10z"/>
<path d="M238 453 c7 -3 16 -2 19 1 4 3 -2 6 -13 5 -11 0 -14 -3 -6 -6z"/>
<path d="M9645 303 c-52 -109 -51 -108 -66 -111 -11 -2 -14 7 -11 37 3 33 -10
62 -23 49 -2 -2 -6 -65 -10 -141 l-6 -137 24 0 c20 0 29 9 43 43 10 23 17 51
16 61 -3 23 33 131 54 163 12 20 29 113 19 113 -2 0 -20 -35 -40 -77z"/>
<path d="M1490 126 c0 -2 7 -6 15 -10 8 -3 15 -1 15 4 0 6 -7 10 -15 10 -8 0
-15 -2 -15 -4z"/>
<path d="M1536 105 c4 -8 11 -12 17 -8 6 4 8 0 4 -11 -4 -9 -3 -15 2 -12 11 7
63 -52 56 -64 -4 -6 9 -10 29 -10 20 0 36 5 36 10 0 6 -4 10 -10 10 -5 0 -24
16 -43 35 -19 19 -39 35 -44 35 -6 0 -16 7 -23 15 -16 19 -31 19 -24 0z"/>
<path d="M1790 62 c0 -11 -4 -24 -10 -27 -13 -8 -13 -35 0 -35 11 0 25 68 16
77 -3 4 -6 -3 -6 -15z"/>
</g>
</svg>
